<?xml version="1.0" encoding="UTF-8"?>
<!DOCTYPE svg  PUBLIC '-//W3C//DTD SVG 1.1//EN'  'http://www.w3.org/Graphics/SVG/1.1/DTD/svg11.dtd'>
<svg enable-background="new 0 0 150 150" version="1.1" viewBox="0 0 150 150" xml:space="preserve" xmlns="http://www.w3.org/2000/svg" xmlns:xlink="http://www.w3.org/1999/xlink">
<rect y="-18.5" width="149.8" height="168.5" fill="#1A2E5A"/>
	<defs>
		<rect id="b" x=".2" y="-18.5" width="149.8" height="168.5"/>
	</defs>
	<clipPath id="a">
		<use overflow="visible" xlink:href="#b"/>
	</clipPath>
	<path d="m130.3 80.2c0.1-0.1 0.2-0.2 0.3-0.4v-0.4l-8.4-25c-0.1-0.3-0.4-0.5-0.7-0.5h-26.9-0.1c-0.3 0-0.6 0.2-0.7 0.5l-8.4 24.9c-0.1 0.4 0.1 0.7 0.5 0.8s0.8-0.1 0.9-0.5l8.4-24.9-0.7-0.2v0.7h0.2 26.4l8.2 24.5 0.7-0.2-0.7-0.2 0.7 0.2-0.4-0.5-21.9 15.4 0.4 0.5 0.1-0.7c-0.3 0-0.6 0.1-0.7 0.4s0 0.6 0.3 0.8 0.7 0.1 0.9-0.2 0.1-0.7-0.2-0.9l-22.1-15.3c-0.3-0.2-0.7-0.1-1 0.1-0.2 0.3-0.2 0.7 0.2 0.9l22 15.5 0.4-0.5 0.4-0.6-0.4 0.6-0.1 0.7c0.2 0 0.3 0 0.5-0.1" clip-path="url(#a)" fill="#1A2E5A"/>
	<polygon points="94.4 54.7 86 79.6 108 95.1 129.9 79.7 121.5 54.7" clip-path="url(#a)" fill="#fff"/>
	<path d="m57.5 109.1v-0.2l0.1-4c0-1.3 0-1.7-0.2-2.1-0.5-1.3-1.9-2.1-4-2.1-1.1 0-2.2 0.2-3.4 0.7-0.9 0.3-1.3 0.6-2 1l1.4 2.2c1.3-0.9 2.5-1.4 3.6-1.4 1.2 0 1.4 0.4 1.4 1.8v0.5h-0.7c-3.9 0-5.9 1.3-5.9 4.1 0 2.4 1.5 3.7 4.2 3.7 1 0 1.9-0.2 2.5-0.7 0.2-0.2 0.5-0.4 0.7-0.6 0.3 0.6 1 1.1 1.7 1.4l1.7-1.9c-0.8-0.6-1.1-1.1-1.1-2.4m-3.2 1.1c-0.5 0.5-1.1 0.8-1.7 0.8-0.8 0-1.4-0.6-1.4-1.6 0-1.4 0.8-1.8 3-1.8h0.1v2.6zm-16.4 0.7c-1.1 0-1.4-0.4-1.4-1.9v-6h2.1l0.8-2.1h-2.9c0-0.8 0-1.6 0.1-2.4h-3.2c-0.1 0.7-0.1 1.4-0.1 2.4h-1.2v2.1h1.2v6.5c0 1.1 0 1.3 0.2 1.8 0.4 1.1 1.7 1.7 3.3 1.7 0.8 0 1.7-0.2 2.6-0.5l-0.4-1.9c-0.5 0.3-0.8 0.3-1.1 0.3m8.9-10.3c-0.4 0-0.8 0.1-1.1 0.2-0.6 0.3-1.4 0.9-1.8 1.5 0-0.7-0.2-1.2-0.5-1.7l-2.9 0.7c0.3 0.7 0.5 1.9 0.5 3.5v8h3.2v-8.4c0.6-0.7 1.3-1 2-1 0.4 0 0.6 0.1 0.9 0.2l0.9-2.8c-0.5-0.1-0.8-0.2-1.2-0.2m-19.6 2.3l-2-0.5c-1.4-0.4-1.9-0.8-1.9-1.6 0-1.1 1-1.9 2.3-1.9 1.2 0 2.4 0.4 3.9 1.2l1.6-2.3c-1.5-1-3.5-1.6-5.6-1.6-3.5 0-6 2-6 5 0 0.9 0.2 1.8 0.7 2.5 0.6 1 1.6 1.6 3.3 2.1l1.9 0.5c1.5 0.4 2.2 1 2.2 2.1 0 1.4-1 2.2-2.9 2.2-1.7 0-3-0.5-4.6-1.3l-1.3 2.5c1.7 0.9 3.8 1.5 5.7 1.5 4.2 0 6.9-2.2 6.9-5.5 0-2.5-1.5-4.2-4.2-4.9m37.6 8c-1.1 0-1.4-0.4-1.4-1.9v-6h2.1l0.8-2.1h-2.9c0-0.8 0-1.6 0.1-2.4h-3.2c-0.1 0.7-0.1 1.4-0.1 2.4h-1.2v2.1h1.2v6.5c0 1.1 0 1.3 0.2 1.8 0.4 1.1 1.7 1.7 3.3 1.7 0.8 0 1.7-0.2 2.6-0.5l-0.4-1.9c-0.5 0.3-0.8 0.3-1.1 0.3m29.8 0.1c-0.3 0-0.5-0.1-0.6-0.3-0.2-0.3-0.2-0.6-0.2-2.7v-9.3-1.8h-3.3c0 0.7 0.1 2.1 0.1 3v8.9c0 1.7 0 2.1 0.3 2.7 0.4 1 1.5 1.6 2.9 1.6 0.7 0 1.4-0.1 1.9-0.3l-0.6-1.9c-0.3 0.1-0.4 0.1-0.5 0.1m23.7-14.1h-3.2v2.8c0 0.7 0 1.5 0.1 1.8-0.6-0.5-1.3-0.7-2.2-0.7-3.1 0-5.3 2.6-5.3 6.3s2 6.1 5.1 6.1c1.1 0 2-0.3 2.8-1 0.1 0.3 0.1 0.5 0.2 0.7h2.9c-0.2-0.5-0.5-1.4-0.5-4.4v-11.6zm-3.2 12.8c-0.3 0.4-1 0.8-1.6 0.8-1.7 0-2.2-0.8-2.2-3.4 0-2.7 0.6-3.8 2.1-3.8 0.6 0 1.2 0.3 1.8 0.8v5.6zm-40.6-9.1c-1.3 0-2.6 0.5-3.5 1.3 0-0.1 0.1-0.6 0.1-1v-4h-3.3v2.1 13.8h3.3v-8.6c0.7-0.6 1.8-1.1 2.6-1.1 0.9 0 1.2 0.4 1.2 1.6v8h3.1v-8.4c0-1.1-0.1-1.5-0.3-2.2-0.4-0.9-1.6-1.5-3.2-1.5m56.5 7.2v-0.7c0-2.5-0.5-4.1-1.6-5.2-0.8-0.8-2.1-1.3-3.6-1.3-1.6 0-2.9 0.5-3.9 1.6-1.1 1.2-1.5 2.6-1.5 4.7 0 3.8 2.3 6.2 5.8 6.2 1.7 0 3.2-0.5 4.6-1.7l-1.3-1.9c-1 0.8-2 1.2-3.1 1.2-1.7 0-2.6-1.1-2.6-2.9v-0.1h7.2zm-7.1-2.3c0-1.7 0.7-2.6 1.9-2.6 0.6 0 1.1 0.2 1.4 0.7 0.3 0.4 0.4 0.9 0.4 1.8v0.1h-3.7zm-36.2 4.3c-0.8 0.7-1.5 1-2.2 1-0.6 0-1.1-0.3-1.4-0.7-0.4-0.5-0.6-1.4-0.6-3 0-2.8 0.6-4 2.1-4 0.6 0 1.3 0.3 1.9 0.9l1.6-2c-0.5-0.4-0.7-0.6-1.2-0.8-0.7-0.3-1.6-0.5-2.4-0.5-1 0-2.2 0.4-3.1 0.9-1.4 1-2.5 2.8-2.5 5.5 0 3.9 2 6.2 5.4 6.2 1.2 0 2.1-0.2 3-0.7 0.4-0.3 0.6-0.4 1.1-0.9l-1.5-1.9h-0.2zm16.6-8.9l-1.8 5.7c-0.2 0.6-0.4 1.3-0.5 1.7-0.1 0.6-0.4 1.9-0.4 1.9s-0.4-1.7-0.7-2.5l-2.1-7-3.3 0.4 2.9 8.4c0.1 0.4 0.8 2.2 1.2 3.4h0.8c-0.3 0.7-0.4 0.9-0.7 1.4-0.3 0.4-0.6 0.7-0.9 1-0.5 0.3-1.3 0.6-2 0.8l1.1 2.1c1.1-0.1 2.2-0.5 3-1.1 0.9-0.6 1.5-1.6 2.4-3.9l4.5-12.1h-3.5z" clip-path="url(#a)" fill="#fff"/>
	<path d="m22.1 84.3v5.4c0 0.5 0 0.8 0.1 1 0.2 0.4 0.6 0.6 1.2 0.6 0.7 0 1.2-0.4 1.3-1v-0.7-5.2h1.7v5.5c0 0.8 0 0.9-0.1 1.3-0.2 0.6-1 1.5-2.9 1.5-1.3 0-2.2-0.4-2.7-1.1-0.3-0.4-0.4-0.8-0.4-1.5v-5.7h1.8z" clip-path="url(#a)" fill="#fff"/>
	<path d="m29.1 86.3c0.1 0.2 0.2 0.5 0.2 0.8 0.2-0.2 0.4-0.3 0.7-0.4 0.3-0.2 0.8-0.3 1.1-0.3 0.7 0 1.3 0.3 1.5 0.9 0.1 0.2 0.1 0.5 0.1 0.9v4.4h-1.6v-3.9c0-0.7-0.1-0.9-0.5-0.9-0.3 0-0.7 0.2-1.1 0.5v4.2h-1.6v-4.3c0-0.5-0.1-1-0.2-1.4l1.4-0.5z" clip-path="url(#a)" fill="#fff"/>
	<path d="m36.1 84.8c0 0.5-0.4 1-1 1-0.5 0-1-0.4-1-1s0.5-1 1-1c0.6 0 1 0.5 1 1m-0.2 1.5v6.1h-1.6v-5.9l1.6-0.2z" clip-path="url(#a)" fill="#fff"/>
	<path d="m38.1 86.4l0.9 2.7c0.1 0.4 0.3 1.1 0.4 1.4 0-0.4 0.2-0.9 0.4-1.5l0.8-2.5h1.7l-2.3 6h-1.3l-2.2-5.9 1.6-0.2z" clip-path="url(#a)" fill="#fff"/>
	<path d="m47.7 91.8c-0.7 0.6-1.5 0.8-2.3 0.8-1.8 0-2.9-1.2-2.9-3.1 0-1.1 0.2-1.8 0.8-2.4 0.5-0.6 1.1-0.8 1.9-0.8 0.7 0 1.4 0.2 1.8 0.6 0.6 0.6 0.8 1.4 0.8 2.6v0.4h-3.6c0 0.9 0.5 1.5 1.3 1.5 0.6 0 1.1-0.2 1.6-0.6l0.6 1zm-1.6-3c0-0.5-0.1-0.7-0.2-1-0.2-0.2-0.4-0.4-0.7-0.4-0.6 0-1 0.5-1 1.3h1.9z" clip-path="url(#a)" fill="#fff"/>
	<path d="m50.1 86.3c0.1 0.2 0.2 0.5 0.3 0.9 0.2-0.3 0.6-0.6 0.9-0.8 0.1-0.1 0.3-0.1 0.5-0.1s0.4 0 0.6 0.1l-0.4 1.4c-0.2-0.1-0.3-0.1-0.5-0.1-0.4 0-0.7 0.2-1 0.5v4.3h-1.6v-4c0-0.8-0.1-1.4-0.2-1.8l1.4-0.4z" clip-path="url(#a)" fill="#fff"/>
	<path d="m57 87.9c-0.6-0.3-1.1-0.4-1.5-0.4-0.5 0-0.8 0.2-0.8 0.6 0 0.3 0.2 0.5 0.8 0.6l0.8 0.2c0.8 0.2 1 0.4 1.2 0.7s0.3 0.6 0.3 1c0 1.2-1.1 2.1-2.7 2.1-0.8 0-1.6-0.2-2.5-0.7l0.6-1.2c0.5 0.3 1.4 0.7 2.1 0.7 0.5 0 0.8-0.3 0.8-0.7s-0.3-0.6-1-0.7l-0.7-0.1c-0.4-0.1-0.9-0.4-1.1-0.6-0.2-0.3-0.4-0.7-0.4-1.1 0-1.2 1-2 2.4-2 1 0 1.6 0.3 2.2 0.6l-0.5 1z" clip-path="url(#a)" fill="#fff"/>
	<path d="m60.7 84.8c0 0.5-0.4 1-1 1-0.5 0-1-0.4-1-1s0.5-1 1-1c0.6 0 1 0.5 1 1m-0.2 1.5v6.1h-1.6v-5.9l1.6-0.2z" clip-path="url(#a)" fill="#fff"/>
	<path d="m64.8 87.5h-1v3c0 0.8 0.1 1 0.7 1 0.1 0 0.3 0 0.6-0.1l0.2 0.9c-0.5 0.2-0.9 0.3-1.3 0.3-0.8 0-1.5-0.3-1.7-0.9-0.1-0.3-0.1-0.4-0.1-0.9v-3.3h-0.6v-1.1h0.6c0-0.6 0-1 0.1-1.4l1.6-0.4c-0.1 0.5-0.1 1.2-0.1 1.8h1.5l-0.5 1.1z" clip-path="url(#a)" fill="#fff"/>
	<path d="m67.3 86.4l1.1 3.5 0.3 1.2s0.1-0.7 0.2-1c0-0.2 0.1-0.6 0.2-0.8l0.9-2.9h1.7l-2.3 6.1c-0.4 1.2-0.7 1.7-1.2 2-0.4 0.3-0.9 0.5-1.5 0.6l-0.6-1c0.3-0.1 0.8-0.2 1-0.4 0.2-0.1 0.3-0.3 0.5-0.5s0.2-0.3 0.4-0.7h-0.4c-0.2-0.6-0.5-1.5-0.6-1.7l-1.5-4.2 1.8-0.2z" clip-path="url(#a)" fill="#fff"/>
	<path d="m78.2 87.2c0.5 0.6 0.7 1.2 0.7 2.2s-0.2 1.7-0.8 2.3c-0.5 0.5-1.1 0.8-2 0.8-1.7 0-2.8-1.2-2.8-3.1s1.1-3.1 2.8-3.1c0.9 0 1.6 0.3 2.1 0.9m-2.9 0.9c-0.1 0.3-0.2 0.7-0.2 1.3 0 0.7 0.1 1.2 0.2 1.5s0.5 0.5 0.8 0.5c0.7 0 1-0.6 1-2 0-0.8-0.1-1.3-0.3-1.6-0.2-0.2-0.4-0.3-0.7-0.3s-0.6 0.2-0.8 0.6" clip-path="url(#a)" fill="#fff"/>
	<path d="m82.4 84.9c-0.4 0-0.7 0.2-0.7 0.7v0.9h1.6l-0.4 1.1h-1.1v4.9h-1.6v-4.9h-0.6v-1.1h0.6c0-0.2-0.1-0.6-0.1-0.8 0-1.2 0.7-1.9 2-1.9 0.5 0 1 0.1 1.5 0.4l-0.5 1c-0.4-0.3-0.5-0.3-0.7-0.3" clip-path="url(#a)" fill="#fff"/>
	<path d="m108.4 65.8l-16.1-0.1-3.5 10s-1.3 2.3 1.7 5.1 16.5 12.1 17.1 11l4-4.3-3.2-21.7z" clip-path="url(#a)" fill="#1A2E5A"/>
	<polygon points="107.5 91.8 108 91.9 108 66 107.5 65.8" clip-path="url(#a)" fill="#1A2E5A"/>
	<polygon points="107.5 66 122.3 65.9 109.3 74.2" clip-path="url(#a)" fill="#1A2E5A"/>
	<polygon points="107.9 79.5 117.7 86.1 121.4 83.6 111.6 77.1 124.3 68.2 123.5 65.9 120.5 65.9 107.9 74.4 95.4 65.9 92.5 65.9 91.7 68.2 104 76.9 94.4 83.5 98.1 86.1" clip-path="url(#a)" fill="#fff"/>
	<path d="m93.9 61.5h9.6 0.2l0.2-0.1 0.2-0.1-0.1-0.1 0.1 0.1c0.1-0.1 0.3-0.4 0.3-0.4v-0.1 0.1-0.1 0.1-0.1 0.1-0.1 0.1s0.1 0.1 0.1 0.3h0.1-0.1l0.1 0.5h0.1-0.1v0.1 0.1l0.1 0.1 0.1-0.1c0.1-0.1 0.1-0.2 0.2-0.5 0.1-0.8 0.2-1.2 0.2-1.2h-0.1l0.1 0.1 0.1-0.1 0.1-0.1v-0.1 0.1-0.1 0.1-0.1l-0.1 0.1h0.1v-0.1l-0.1 0.1v0.2h0.1-0.1v2.7 0.4c0 0.1 0 0.2 0.1 0.3l0.1 0.1 0.2 0.1h0.1c0.1 0 0.2 0 0.3-0.1s0.1-0.2 0.1-0.4v-4.4-0.1-0.2l0.1-0.1v-0.1 0.1-0.1 0.1-0.1 0.1s0.1 0.1 0.1 0.3v5.2h0.1-0.1s0 0.1 0.1 0.2 0.2 0.2 0.4 0.2v-0.1 0.1h0.1l0.2-0.1c0.1-0.1 0.1-0.2 0.1-0.4v-5.8h-0.3 0.1l0.1-0.1v-0.1h0.1l0.1 0.2 0.1-0.1h-0.1v6.3h0.1-0.1v0.1c0 0.1 0 0.2 0.1 0.3 0 0.1 0.2 0.3 0.4 0.3v-0.3l-0.1-0.1v-0.2-6.4c-0.1-0.2-0.3-0.3-0.4-0.3s-0.2 0-0.2 0.1c-0.1 0.1-0.2 0.3-0.2 0.4v5.8h0.1-0.1c0 0.2 0 0.2-0.1 0.2v-0.3-0.1 0.1-0.1c-0.1 0-0.2 0-0.2-0.1v-0.1-5.2c0-0.2-0.1-0.4-0.2-0.5s-0.2-0.1-0.2-0.1c-0.2 0-0.3 0.1-0.4 0.2s-0.1 0.2-0.1 0.3v0.1h0.1-0.1v4.5 0.3h-0.1v0.1l0.1-0.1h-0.1v0.1l0.1-0.1s-0.1-0.2-0.1-0.3v-0.3h-0.1 0.1v-2.7-0.3c0-0.1-0.1-0.2-0.2-0.2l-0.2 0.1-0.2 0.2s-0.1 0.3-0.2 1.2c0 0.2-0.1 0.3-0.1 0.4l0.1 0.1v-0.1h-0.1l0.1 0.1v-0.1 0.1l0.1-0.1h-0.1v0.1l0.1-0.1v-0.1l-0.1-0.5c0-0.1-0.1-0.2-0.1-0.3s-0.1-0.1-0.2-0.1-0.2 0.1-0.2 0.1v0.1h0.1l-0.1-0.1s-0.2 0.3-0.3 0.4l-0.2 0.1h-0.1v0.1-0.1h-9.6v0.5z" clip-path="url(#a)" fill="#223268"/>
	<path d="m122 61.3h-9.9v0.1-0.1h-0.2-0.1c-0.1-0.1-0.3-0.4-0.3-0.4l-0.1 0.1h0.1v-0.1s-0.1-0.1-0.2-0.1-0.2 0.1-0.2 0.1c0 0.1-0.1 0.2-0.1 0.3l-0.1 0.5v0.1l0.1 0.1v-0.1h-0.1l0.1 0.1v-0.1 0.1l0.1-0.1h-0.1v0.1l0.1-0.1v-0.1c0-0.1 0-0.2-0.1-0.3-0.1-0.8-0.2-1.2-0.2-1.2l-0.1-0.1-0.1-0.1-0.2-0.1c-0.1 0-0.2 0.1-0.2 0.2v0.3 2.7h0.1-0.1v0.3 0.2l0.1 0.1v-0.1h-0.1l0.1 0.1v-0.1h-0.1v-0.1-0.2-4.4h-0.1 0.1v-0.1c0-0.1 0-0.2-0.1-0.3s-0.2-0.2-0.4-0.2c0 0-0.1 0-0.2 0.1s-0.2 0.2-0.2 0.5v5.2 0.1s-0.1 0.1-0.2 0.1v0.1-0.1 0.1-0.4-0.1 0.1-0.1s-0.1-0.1-0.1-0.2h-0.1 0.1v-5.8s0-0.1-0.1-0.2l-0.1-0.2s-0.1-0.1-0.2-0.1c-0.2 0-0.3 0.1-0.4 0.3v6.4 0.2l-0.1 0.1v0.3c0.2 0 0.3-0.1 0.4-0.3 0.1-0.1 0.1-0.3 0.1-0.3h-0.1 0.1v-6.3h-0.1l0.1 0.1 0.1-0.2h0.1l0.1 0.1v0.1h0.1-0.1v5.8c0 0.2 0.1 0.3 0.1 0.4l0.2 0.1v-0.1 0.1c0.2 0 0.3-0.1 0.4-0.2s0.1-0.2 0.1-0.2h-0.1 0.1v-5.2c0-0.2 0.1-0.3 0.1-0.3v-0.1 0.1-0.1 0.1-0.1 0.1l0.1 0.1v0.2 0.1 4.3c0 0.2 0 0.3 0.1 0.4 0 0.1 0.2 0.2 0.3 0.1h0.1l0.2-0.1c0.1-0.1 0.1-0.3 0.1-0.4v-0.3-2.7h-0.1 0.1v-0.2h-0.1v0.1h0.1-0.1v0.1-0.1 0.1-0.1 0.1l0.1 0.1 0.1-0.1h-0.1s0.1 0.3 0.2 1.2c0 0.2 0.1 0.3 0.1 0.4l0.1 0.1 0.1 0.1c0.1 0 0.1-0.1 0.2-0.1l0.1-0.2h-0.1 0.1l0.1-0.5h-0.1 0.1c0-0.1 0.1-0.2 0.1-0.2v0.2-0.1l-0.1 0.1h0.1v-0.1l-0.1 0.1s0.2 0.3 0.3 0.4l0.2 0.1c0.2 0.1 0.4 0.1 0.4 0.1h9.9v-0.3z" clip-path="url(#a)" fill="#1A2E5A"/>
	<path d="m96.2 58.4s-0.2 0.3-0.5 0.4h-0.1v6.1l3.2-1s0.2 0.4 0.6 0l3.1 1v-6.1c-0.3 0-0.6-0.4-0.6-0.4" clip-path="url(#a)" fill="#fff"/>
	<path d="m95.9 58.2l-0.3 0.3 0.1 0.3-0.1-0.3h-0.1-0.3v6.8l3.7-1.2-0.1-0.3-0.3 0.2s0.1 0.1 0.1 0.2c0.1 0.1 0.3 0.2 0.4 0.2 0.2 0 0.4-0.1 0.6-0.2l-0.2-0.3v0.3-0.3l-0.1 0.3 3.6 1.1v-6.8l-0.3-0.1-0.2-0.1-0.1-0.1-0.5 0.4 0.2 0.2c0.1 0.1 0.3 0.3 0.6 0.3v-0.3l-0.1 0.3h0.1l0.1-0.3h-0.3v5.6l-2.7-0.9h-0.1-0.1l-0.1 0.1-0.1 0.1h-0.3l0.1-0.1-0.1 0.1 0.1-0.1-0.1-0.2-3.1 1v-5.6h-0.3l0.1 0.3h0.1c0.4-0.1 0.6-0.5 0.7-0.5l-0.6-0.4z" clip-path="url(#a)" fill="#1A2E5A"/>
	<path d="m96.2 58.3v6c0.5-0.1 1-0.6 1-0.6 1.1-1 1.9-0.3 1.9-0.3v-5.1c0-0.4-0.9-0.8-1.6-0.3-0.6 0.5-1.1 0.3-1.1 0.3h-0.2z" clip-path="url(#a)" fill="#fff"/>
	<path d="m96.2 58.3h-0.4v6.4h0.4c0.4 0 0.7-0.2 0.9-0.4s0.3-0.3 0.4-0.3l-0.3-0.2 0.2 0.2c0.4-0.4 0.7-0.4 0.9-0.4s0.3 0 0.4 0.1l0.1 0.1 0.1-0.1-0.1 0.1 0.1-0.1-0.1 0.1 0.6 0.6v-5.9c0-0.3-0.2-0.5-0.4-0.7-0.2-0.1-0.5-0.2-0.8-0.2s-0.6 0.1-0.9 0.3c-0.3 0.1-0.5 0.1-0.6 0.1h-0.1l-0.1 0.2 0.1-0.2-0.1 0.2 0.1-0.2h-0.3-0.4v0.4h0.3v0.3h0.2v-0.3l-0.1 0.3s0.2 0.1 0.3 0.1c0.3 0 0.6-0.1 1.1-0.4 0.1-0.1 0.3-0.1 0.4-0.1 0.2 0 0.3 0.1 0.5 0.1l0.1 0.1h0.1-0.1 0.1-0.1 0.4-0.4v5.1h0.3l0.3-0.2s-0.4-0.4-1-0.4c-0.4 0-0.9 0.2-1.4 0.6l-0.3 0.3c-0.1 0.1-0.3 0.2-0.5 0.2v0.3h0.3v-6h-0.2v0.3-0.4z" clip-path="url(#a)" fill="#1A2E5A"/>
	<path d="m101.8 58.3s-0.4 0.2-1.1-0.3c-0.6-0.5-1.6 0-1.6 0.3v5.1s0.7-0.8 1.9 0.3c0 0 0.5 0.5 1 0.6v-6h-0.2z" clip-path="url(#a)" fill="#fff"/>
	<path d="m101.8 58.3l-0.1-0.3 0.1 0.2-0.1-0.2 0.1 0.2-0.1-0.2h-0.1c-0.1 0-0.3 0-0.6-0.3-0.3-0.2-0.6-0.3-0.9-0.3s-0.6 0.1-0.8 0.2-0.4 0.3-0.5 0.7v5.9l0.6-0.6-0.1-0.1 0.1 0.1-0.1-0.1 0.1 0.1s0.2-0.2 0.5-0.2c0.2 0 0.5 0.1 0.9 0.4l0.2-0.2-0.3 0.2s0.1 0.2 0.4 0.3c0.2 0.2 0.5 0.3 0.9 0.4h0.4v-6.8l-0.7 0.1 0.1 0.5 0.1 0.3h0.2l-0.1-0.3h-0.4v6h0.4v-0.3c-0.2 0-0.4-0.1-0.5-0.2l-0.2-0.2h-0.1c-0.5-0.5-1-0.6-1.4-0.6-0.6 0-0.9 0.3-1 0.4l0.3 0.2h0.4v-5.1h-0.4 0.4-0.1 0.1-0.1 0.1s0.1-0.1 0.2-0.1c0.1-0.1 0.3-0.1 0.4-0.1 0.2 0 0.3 0 0.4 0.1 0.4 0.3 0.8 0.4 1.1 0.4 0.2 0 0.3 0 0.4-0.1l-0.2-0.4 0.1 0.3-0.1-0.3z" clip-path="url(#a)" fill="#1A2E5A"/>
	<path d="m113.7 58.3s-0.2 0.3-0.5 0.4h-0.1v6.1l3.2-1s0.2 0.4 0.6 0l3.1 1v-6.1c-0.3 0-0.6-0.4-0.6-0.4" clip-path="url(#a)" fill="#fff"/>
	<path d="m113.5 58.1l-0.3 0.3 0.1 0.3-0.1-0.3h-0.1l-0.3 0.1v6.8l3.7-1.2-0.1-0.3-0.3 0.2s0.1 0.1 0.1 0.2c0.1 0.1 0.3 0.2 0.5 0.2s0.4-0.1 0.6-0.2l-0.2-0.3v0.3-0.3l-0.1 0.3 3.6 1.1v-6.8l-0.3-0.1-0.2-0.1-0.1-0.1-0.5 0.4 0.2 0.2c0.1 0.1 0.3 0.3 0.6 0.3v-0.3l-0.3 0.2 0.1-0.3h-0.3v5.6l-2.7-0.9h-0.1-0.1l-0.1 0.1-0.1 0.1-0.1 0.1h0.1l-0.1 0.1h0.1l-0.1-0.2-3.1 1v-5.6h-0.4l0.1 0.3h0.1c0.4-0.1 0.6-0.5 0.7-0.5l-0.5-0.7z" clip-path="url(#a)" fill="#1A2E5A"/>
	<path d="m113.8 58.2v6c0.5-0.1 1-0.6 1-0.6 1.1-1 1.9-0.3 1.9-0.3v-5.1c0-0.4-0.9-0.8-1.6-0.3-0.6 0.5-1.1 0.3-1.1 0.3h-0.2z" clip-path="url(#a)" fill="#fff"/>
	<path d="m113.8 58.2h-0.4v6.4h0.4c0.4 0 0.7-0.2 0.9-0.4s0.3-0.3 0.4-0.3l-0.3-0.2 0.2 0.2c0.4-0.4 0.7-0.4 0.9-0.4s0.3 0 0.4 0.1l0.1 0.1 0.1-0.1-0.1 0.1 0.1-0.1-0.1 0.1 0.6 0.6v-5.9c0-0.3-0.2-0.5-0.4-0.7-0.2-0.1-0.5-0.2-0.8-0.2s-0.6 0.1-0.9 0.3-0.5 0.3-0.6 0.3h-0.1l-0.1 0.2 0.1-0.2-0.1 0.2 0.1-0.2h-0.3-0.4v0.4h0.3v0.3h0.2v-0.3l-0.1 0.3s0.2 0.1 0.3 0.1c0.3 0 0.6-0.1 1.1-0.4 0.1-0.1 0.3-0.1 0.4-0.1 0.2 0 0.3 0.1 0.5 0.1l0.1 0.1h-0.2 0.3-0.3v5.1h0.4l0.2-0.2s-0.4-0.4-1-0.4c-0.4 0-0.9 0.2-1.4 0.6l-0.3 0.3c-0.1 0.1-0.3 0.2-0.5 0.2v0.3h0.3v-6 0.3-0.6z" clip-path="url(#a)" fill="#1A2E5A"/>
	<path d="m119.3 58.3s-0.4 0.2-1-0.3-1.6 0-1.6 0.3v5.1s0.7-0.8 1.9 0.3c0 0 0.5 0.5 1 0.6v-6h-0.3z" clip-path="url(#a)" fill="#fff"/>
	<path d="m119.3 58.3l-0.1-0.3 0.1 0.2-0.1-0.2 0.1 0.2-0.1-0.2h-0.1c-0.1 0-0.3 0-0.6-0.3-0.3-0.2-0.6-0.3-0.9-0.3s-0.6 0.1-0.8 0.2-0.4 0.3-0.4 0.7v5.9l0.6-0.6-0.1-0.1 0.1 0.1-0.1-0.1 0.1 0.1s0.2-0.2 0.5-0.2c0.2 0 0.5 0.1 0.9 0.5l0.2-0.2-0.3 0.2s0.1 0.2 0.4 0.3c0.2 0.2 0.5 0.3 0.9 0.4h0.4v-6.8l-0.7 0.1v0.4l0.1 0.3h0.2l-0.1-0.3h-0.3v6h0.3v-0.3c-0.2 0-0.4-0.1-0.5-0.2l-0.2-0.2-0.1-0.1c-0.5-0.5-1-0.6-1.4-0.6-0.6 0-0.9 0.3-1 0.4l0.3 0.2h0.3v-5.1h-0.3 0.3 0.1 0.1-0.1 0.1s0.1-0.1 0.2-0.1c0.1-0.1 0.3-0.1 0.4-0.1 0.2 0 0.3 0 0.4 0.1 0.4 0.3 0.8 0.4 1.1 0.4 0.2 0 0.3 0 0.3-0.1l-0.2-0.3 0.1 0.3-0.1-0.3z" clip-path="url(#a)" fill="#1A2E5A"/>
	<path d="m96.2 58.4s-0.2 0.3-0.5 0.4h-0.1v6.1l3.2-1s0.2 0.4 0.6 0l3.1 1v-6.1c-0.3 0-0.6-0.4-0.6-0.4" clip-path="url(#a)" fill="#fff"/>
	<path d="m96.1 58.4l-0.1 0.1c-0.1 0.1-0.2 0.2-0.3 0.2v0.1-0.1h-0.1-0.1v6.2l3.3-1.1v-0.1h-0.1s0.1 0.2 0.4 0.2c0.1 0 0.2 0 0.4-0.2v-0.1 0.1l3.2 1v-6.2h-0.1c-0.1 0-0.3-0.1-0.4-0.2l-0.2-0.2-0.1 0.1s0.3 0.4 0.7 0.4v-0.1 0.1h0.1v-0.1h-0.1v6l-3-1h-0.1c-0.1 0.1-0.2 0.1-0.3 0.1l-0.2-0.1v-0.1l-3.2 1v-5.9h0.1c0.3-0.1 0.5-0.4 0.5-0.4l-0.3 0.3z" clip-path="url(#a)" fill="#1A2E5A"/>
	<path d="m96.2 58.3v6c0.5-0.1 1-0.6 1-0.6 1.1-1 1.9-0.3 1.9-0.3v-5.1c0-0.4-0.9-0.8-1.6-0.3-0.6 0.5-1.1 0.3-1.1 0.3h-0.2z" clip-path="url(#a)" fill="#fff"/>
	<path d="m96.2 58.3h-0.1v6.1h0.2c0.6-0.1 1.1-0.6 1.1-0.6l-0.1-0.1 0.1 0.1c0.4-0.4 0.8-0.5 1.1-0.5 0.2 0 0.4 0.1 0.5 0.1l0.1 0.1 0.2 0.2v-5.4c0-0.2-0.2-0.4-0.3-0.5-0.2-0.1-0.4-0.2-0.7-0.2-0.2 0-0.5 0.1-0.7 0.2-0.3 0.3-0.6 0.3-0.8 0.3h-0.1-0.3-0.2v0.2 0.1h0.2v-0.1l-0.1 0.1h0.3c0.2 0 0.5-0.1 0.9-0.4h0.6c0.2 0 0.4 0.1 0.6 0.2 0.1 0.1 0.2 0.2 0.2 0.3h0.1-0.1v5.1h0.1l0.1-0.1s-0.3-0.3-0.8-0.3c-0.3 0-0.8 0.1-1.2 0.6l-0.1-0.1c-0.1 0.1-0.5 0.4-0.8 0.5v0.1h0.1v-6h-0.1v0.1-0.1z" clip-path="url(#a)" fill="#1A2E5A"/>
	<path d="m101.8 58.3s-0.4 0.2-1.1-0.3c-0.6-0.5-1.6 0-1.6 0.3v5.1s0.7-0.8 1.9 0.3c0 0 0.5 0.5 1 0.6v-6h-0.2z" clip-path="url(#a)" fill="#fff"/>
	<path d="m101.8 58.3l-0.1-0.1 0.1 0.1-0.1-0.1 0.1 0.1-0.1-0.1h-0.2c-0.2 0-0.4 0-0.8-0.3-0.2-0.2-0.5-0.2-0.7-0.2-0.3 0-0.5 0.1-0.7 0.2-0.1 0.1-0.3 0.3-0.3 0.5v5.4l0.2-0.2s0.3-0.2 0.6-0.2 0.6 0.1 1 0.5l0.1-0.1-0.1 0.1s0.5 0.6 1.1 0.6h0.1v-6.3l-0.4 0.1h0.2v0.1h0.1v5.8h0.1v-0.1c-0.2 0-0.5-0.1-0.6-0.3l-0.2-0.2-0.1-0.1c-0.5-0.4-0.9-0.6-1.2-0.6-0.5 0-0.8 0.3-0.8 0.3l0.1 0.1h0.1v-5.1h-0.1 0.1c0-0.1 0.1-0.2 0.2-0.3s0.4-0.2 0.6-0.2 0.4 0.1 0.6 0.2c0.4 0.3 0.7 0.4 0.9 0.4h0.3-0.1v0.1-0.1z" clip-path="url(#a)" fill="#1A2E5A"/>
	<rect x="99" y="58.4" width=".1" height="5" clip-path="url(#a)" fill="#1A2E5A"/>
	<polygon points="95.5 64.8 95.7 65 96.3 64.4 96.1 64.2" clip-path="url(#a)" fill="#1A2E5A"/>
	<polygon points="101.9 64.4 102.5 65 102.7 64.8 102.1 64.2" clip-path="url(#a)" fill="#1A2E5A"/>
	<path d="m99.1 63.5c-0.2 0.1-0.3 0.3-0.3 0.3" clip-path="url(#a)" fill="#fff"/>
	<path d="m99 63.4c-0.3 0.1-0.3 0.4-0.3 0.4l0.3 0.1 0.2-0.2-0.2-0.3z" clip-path="url(#a)" fill="#1A2E5A"/>
	<path d="m99.5 63.8s-0.1-0.3-0.3-0.3" clip-path="url(#a)" fill="#fff"/>
	<path d="m99.6 63.7s-0.1-0.3-0.4-0.4l-0.1 0.2 0.2 0.1 0.1 0.1h0.2z" clip-path="url(#a)" fill="#1A2E5A"/>
	<path d="m113.7 58.3s-0.2 0.3-0.5 0.4h-0.1v6.1l3.2-1s0.2 0.4 0.6 0l3.1 1v-6.1c-0.3 0-0.6-0.4-0.6-0.4" clip-path="url(#a)" fill="#fff"/>
	<path d="m113.7 58.3l-0.1 0.1c-0.1 0.1-0.2 0.2-0.3 0.2v0.1-0.1h-0.1-0.1v6.2l3.3-1.1v-0.1h-0.1s0.1 0.2 0.4 0.2c0.1 0 0.2 0 0.4-0.2v-0.1 0.1l3.2 1v-6.2h-0.1c-0.1 0-0.2-0.1-0.4-0.2l-0.2-0.2-0.1 0.1s0.3 0.4 0.7 0.4v-0.1 0.1-0.1h-0.1v6l-3-1h-0.1c-0.1 0.1-0.2 0.1-0.3 0.1l-0.2-0.1v-0.1l-3.2 1v-5.9h0.1c0.3-0.1 0.5-0.4 0.5-0.4l-0.2 0.3z" clip-path="url(#a)" fill="#1A2E5A"/>
	<path d="m113.8 58.2v6c0.5-0.1 1-0.6 1-0.6 1.1-1 1.9-0.3 1.9-0.3v-5.1c0-0.4-0.9-0.8-1.6-0.3-0.6 0.5-1.1 0.3-1.1 0.3h-0.2z" clip-path="url(#a)" fill="#fff"/>
	<path d="m113.8 58.2h-0.1v6.2h0.2c0.6-0.1 1.1-0.6 1.1-0.6l-0.1-0.1 0.1 0.1c0.4-0.4 0.8-0.5 1-0.5s0.3 0.1 0.5 0.1l0.1 0.1 0.2 0.2v-5.4c0-0.2-0.2-0.4-0.4-0.5s-0.4-0.2-0.7-0.2c-0.2 0-0.5 0.1-0.7 0.2-0.3 0.3-0.6 0.3-0.8 0.3h-0.1-0.3-0.2v0.2h0.2v0.1h0.2v-0.1l-0.1 0.1h0.3c0.2 0 0.5-0.1 0.9-0.4 0.2-0.1 0.4-0.2 0.6-0.2s0.4 0.1 0.6 0.2c0.1 0.1 0.2 0.2 0.2 0.3h0.1-0.1v5.1h0.1l0.1-0.1s-0.3-0.3-0.8-0.3c-0.3 0-0.8 0.1-1.2 0.6l-0.1 0.1c-0.1 0.1-0.5 0.4-0.9 0.5v0.1h0.1v-6 0.1-0.2z" clip-path="url(#a)" fill="#1A2E5A"/>
	<path d="m119.3 58.3s-0.4 0.2-1-0.3-1.6 0-1.6 0.3v5.1s0.7-0.8 1.9 0.3c0 0 0.5 0.5 1 0.6v-6h-0.3z" clip-path="url(#a)" fill="#fff"/>
	<path d="m119.3 58.3l-0.1-0.1 0.1 0.1-0.1-0.1 0.1 0.1-0.1-0.1h-0.2c-0.2 0-0.4 0-0.7-0.3-0.2-0.2-0.5-0.2-0.7-0.2-0.3 0-0.5 0.1-0.7 0.2s-0.3 0.3-0.3 0.5v5.4l0.2-0.2s0.3-0.2 0.6-0.2 0.6 0.1 1.1 0.5l0.1-0.1-0.1 0.1s0.5 0.6 1.1 0.6h0.2v-6.3l-0.4 0.1h-0.1v0.1h0.1v5.8h0.1v-0.1c-0.2 0-0.5-0.2-0.6-0.3l-0.2-0.2-0.1-0.1c-0.5-0.4-0.9-0.6-1.2-0.6-0.5 0-0.8 0.3-0.8 0.3l0.1 0.1h0.1v-5.1h-0.1 0.1c0-0.1 0.1-0.2 0.2-0.3s0.4-0.2 0.6-0.2 0.4 0.1 0.6 0.2c0.4 0.3 0.7 0.4 0.9 0.4h0.3-0.1v0.1-0.1z" clip-path="url(#a)" fill="#1A2E5A"/>
	<rect x="116.6" y="58.3" width=".1" height="5" clip-path="url(#a)" fill="#1A2E5A"/>
	<polygon points="113 64.7 113.2 64.9 113.9 64.3 113.7 64.1" clip-path="url(#a)" fill="#1A2E5A"/>
	<polygon points="119.5 64.3 120.1 64.9 120.3 64.7 119.7 64.1" clip-path="url(#a)" fill="#1A2E5A"/>
	<path d="m116.6 63.4c-0.2 0.1-0.3 0.3-0.3 0.3" clip-path="url(#a)" fill="#fff"/>
	<path d="m116.6 63.3c-0.3 0.1-0.3 0.4-0.4 0.4l0.3 0.1 0.2-0.2-0.1-0.3z" clip-path="url(#a)" fill="#1A2E5A"/>
	<path d="m117 63.7s-0.1-0.3-0.3-0.3" clip-path="url(#a)" fill="#fff"/>
	<path d="m117.1 63.7s-0.1-0.3-0.4-0.4l-0.1 0.2 0.1 0.1 0.1 0.1h0.3z" clip-path="url(#a)" fill="#1A2E5A"/>
	<path d="m93.5 75.1c-0.2 0.1-0.8 0.4-0.9-0.4-0.3-1.6-1.6-0.7-1.9-0.2-0.3 0.6-0.7 0.5-0.7 0.5s0.4 0.1 0.4 0.7 0.7 2 1.8 0.6c0.5-0.7 1 0.2 1.1 0.4v0.2c0 0.2 0.1 1.3-0.7 1.1-1.7-0.3-1.2 1.1-0.8 1.6 0.2 0.4 0 0.7 0 0.7s0.4-0.2 1 0 2.2 0.1 1.2-1.2c-0.5-0.7 0.3-0.8 0.5-0.9h0.1c0.2 0 1.2 0.1 0.8 0.8-0.9 1.5 0.7 1.6 1.3 1.3 0.6-0.2 0.8 0.1 0.8 0.1s-0.2-0.3 0.2-0.8 0.7-2-0.9-1.6c-0.8 0.2-0.7-0.8-0.7-1.1 0-0.2 0.5-1 1-0.4 1.1 1.3 1.7-0.2 1.7-0.9 0-0.6 0.4-0.7 0.4-0.7s-0.4 0.1-0.7-0.4-1.7-1.3-1.8 0.3c-0.1 0.8-0.9 0.5-1.1 0.4s-1-1-0.2-1.2c1.6-0.6 0.5-1.6-0.1-1.8s-0.6-0.6-0.6-0.6 0 0.4-0.6 0.5-1.9 1.1-0.3 1.8c0.7 0.5 0 1-0.3 1.2z" clip-path="url(#a)" fill="#fff"/>
	<path d="m93.5 75.1l-0.2-0.3-0.3 0.1s-0.1-0.1-0.1-0.3c-0.1-0.4-0.2-0.7-0.4-0.9s-0.5-0.3-0.7-0.3c-0.3 0-0.6 0.2-0.9 0.3-0.2 0.2-0.4 0.4-0.5 0.6s-0.2 0.2-0.2 0.3h-0.1v0.2-0.2 0.2-0.2c-0.2 0-0.4 0.1-0.4 0.3s0.1 0.4 0.3 0.4v-0.2 0.2-0.2 0.2l0.1 0.1s0.1 0.1 0.1 0.3c0 0.3 0.1 0.6 0.3 0.9 0.1 0.1 0.2 0.3 0.4 0.4s0.4 0.2 0.6 0.2c0.4 0 0.8-0.3 1.1-0.7l0.1-0.1c0.1 0 0.1 0.1 0.2 0.2s0.1 0.2 0.2 0.3l0.3-0.2-0.4 0.1v0.2 0.2c0 0.1 0 0.3-0.1 0.4l-0.1 0.1h-0.1-0.1-0.5c-0.3 0-0.6 0.1-0.8 0.3s-0.3 0.5-0.3 0.7c0 0.5 0.2 0.9 0.4 1.2l0.1 0.2v0.1l0.2 0.1-0.1-0.1 0.2 0.1-0.1-0.1c-0.1 0.1-0.1 0.3 0 0.4s0.3 0.1 0.4 0.1l-0.1-0.1 0.1 0.1-0.1-0.1 0.1 0.1s0.2-0.1 0.4-0.1c0.1 0 0.2 0 0.4 0.1s0.4 0.1 0.7 0.1 0.5 0 0.8-0.2l0.3-0.3c0.1-0.1 0.1-0.3 0.1-0.5 0-0.3-0.1-0.6-0.4-0.9-0.1-0.1-0.1-0.2-0.1-0.2l0.2-0.1 0.2-0.1-0.1-0.3v0.3h0.1v-0.3l-0.1 0.3c0.1 0 0.3 0 0.5 0.1l0.1 0.1s0 0.1-0.1 0.2c-0.2 0.3-0.3 0.6-0.3 0.9 0 0.4 0.2 0.7 0.5 0.8s0.6 0.2 0.8 0.2c0.3 0 0.5 0 0.7-0.1 0.1-0.1 0.2-0.1 0.3-0.1h0.1l0.1-0.1-0.1 0.1 0.1-0.1-0.1 0.1c0.1 0.1 0.1 0.1 0.2 0.1s0.2 0 0.3-0.1 0.1-0.1 0.1-0.2 0-0.2-0.1-0.3l-0.1 0.1 0.2-0.1-0.1 0.1 0.2-0.1v-0.1c0-0.1 0-0.2 0.2-0.3 0.2-0.3 0.4-0.7 0.4-1.1 0-0.2-0.1-0.5-0.3-0.7s-0.5-0.3-0.9-0.3c-0.2 0-0.4 0-0.6 0.1h-0.1-0.1l-0.1-0.1v-0.3-0.3l0.1-0.2 0.1-0.1 0.1 0.1c0.3 0.4 0.7 0.6 1.1 0.6 0.2 0 0.5-0.1 0.6-0.2 0.2-0.2 0.4-0.4 0.5-0.7s0.2-0.5 0.2-0.8c0-0.2 0.1-0.3 0.1-0.3l-0.1-0.2 0.1 0.2-0.1-0.2 0.1 0.2c0.2-0.1 0.3-0.2 0.2-0.4s-0.2-0.3-0.4-0.2l0.1 0.2v-0.2l0.1 0.2v-0.2s-0.1 0-0.3-0.3c-0.1-0.2-0.3-0.4-0.6-0.5-0.2-0.2-0.5-0.3-0.8-0.3s-0.5 0.1-0.7 0.3-0.3 0.5-0.3 1c0 0.1-0.1 0.2-0.1 0.2h-0.1c-0.1 0-0.4-0.1-0.5-0.1v0.1-0.1 0.1-0.1l-0.2-0.2c-0.1-0.1-0.1-0.3-0.1-0.3l0.1-0.1c0.3-0.1 0.6-0.3 0.8-0.5s0.3-0.4 0.3-0.7c0-0.4-0.2-0.7-0.4-0.9s-0.5-0.4-0.8-0.5c-0.2-0.1-0.3-0.2-0.3-0.2v-0.1h-0.3 0.3-0.3 0.3-0.3-0.3 0.2-0.2 0.2-0.2s0 0.1-0.4 0.2c-0.3 0.1-0.6 0.2-0.8 0.4-0.3 0.2-0.5 0.5-0.5 0.9 0 0.2 0.1 0.4 0.2 0.6 0.2 0.2 0.4 0.3 0.7 0.5 0.1 0 0.1 0.1 0.1 0.1v0.1c0 0.1-0.2 0.3-0.3 0.4l-0.1 0.1-0.1 0.1 0.1 0.1-0.2-0.3 0.2 0.3 0.3 0.2 0.1-0.1-0.4-0.1 0.3 0.2s0.2-0.1 0.3-0.3c0.1-0.1 0.3-0.3 0.3-0.6 0-0.1-0.1-0.3-0.2-0.4s-0.2-0.2-0.4-0.3-0.4-0.2-0.5-0.3-0.1-0.1-0.1-0.2 0.1-0.2 0.3-0.4c0.2-0.1 0.4-0.2 0.5-0.3 0.4-0.1 0.6-0.3 0.8-0.4 0.1-0.2 0.2-0.3 0.2-0.4 0-0.2-0.1-0.3-0.3-0.4-0.2 0-0.4 0.1-0.4 0.3 0 0.1 0 0.2 0.1 0.4s0.4 0.4 0.7 0.5c0.1 0 0.3 0.2 0.5 0.3s0.2 0.3 0.2 0.4l-0.1 0.2c-0.1 0.1-0.2 0.2-0.5 0.3-0.2 0.1-0.3 0.2-0.4 0.3s-0.2 0.3-0.2 0.4c0 0.3 0.1 0.5 0.3 0.7 0.1 0.1 0.1 0.2 0.2 0.2l0.2 0.2c0.1 0.1 0.4 0.2 0.8 0.2 0.2 0 0.4 0 0.6-0.2s0.3-0.4 0.3-0.6c0-0.3 0.1-0.5 0.2-0.6s0.1-0.1 0.2-0.1 0.3 0.1 0.4 0.2c0.2 0.1 0.3 0.2 0.4 0.3 0.3 0.5 0.7 0.6 0.9 0.6h0.2l0.2-0.2v-0.3l-0.2-0.2h-0.3s-0.2 0.1-0.3 0.2c-0.1 0.2-0.3 0.4-0.3 0.8v0.1c0 0.2-0.1 0.5-0.2 0.7-0.1 0.1-0.1 0.2-0.2 0.3l-0.2 0.1c-0.1 0-0.3-0.1-0.5-0.4-0.2-0.2-0.4-0.4-0.7-0.4-0.2 0-0.3 0.1-0.4 0.1-0.2 0.1-0.3 0.2-0.3 0.4-0.1 0.1-0.1 0.3-0.1 0.4v0.4c0 0.2 0 0.4 0.1 0.6 0.1 0.1 0.1 0.2 0.3 0.3 0.1 0.1 0.3 0.1 0.4 0.1h0.3c0.2 0 0.3-0.1 0.4-0.1 0.2 0 0.3 0.1 0.3 0.1s0.1 0.1 0.1 0.3-0.1 0.6-0.2 0.7c-0.2 0.3-0.3 0.5-0.3 0.7 0 0.3 0.1 0.4 0.1 0.5 0.1 0.1 0.1 0.1 0.2 0.1s0.2 0 0.3-0.1 0.1-0.1 0.1-0.2 0-0.2-0.1-0.3c0-0.1-0.3-0.3-0.7-0.3-0.2 0-0.3 0-0.5 0.1-0.1 0-0.3 0.1-0.5 0.1s-0.4 0-0.5-0.1-0.1-0.1-0.1-0.2 0-0.3 0.2-0.6c0.1-0.2 0.1-0.3 0.1-0.5s-0.1-0.4-0.2-0.5c-0.2-0.2-0.4-0.2-0.6-0.3-0.2 0-0.3-0.1-0.4-0.1h-0.1-0.1c-0.1 0-0.3 0.1-0.5 0.2-0.1 0-0.2 0.1-0.3 0.2s-0.2 0.3-0.2 0.4c0 0.2 0.1 0.4 0.2 0.6 0.2 0.3 0.2 0.5 0.2 0.6v0.1s-0.1 0.1-0.2 0.1h-0.4c-0.2 0-0.4 0-0.5-0.1-0.2-0.1-0.4-0.1-0.6-0.1-0.4 0-0.7 0.1-0.7 0.1l0.2 0.3 0.3 0.2s0.1-0.2 0.2-0.5c0-0.2 0-0.3-0.2-0.5-0.1-0.2-0.3-0.6-0.3-0.9 0-0.1 0-0.2 0.1-0.2 0 0 0.1-0.1 0.4-0.1h0.3 0.2c0.2 0 0.4 0 0.5-0.1 0.2-0.1 0.3-0.3 0.4-0.5s0.1-0.4 0.1-0.5v-0.4-0.2l-0.1-0.1c0-0.1-0.1-0.2-0.3-0.4-0.1-0.1-0.2-0.2-0.3-0.2-0.1-0.1-0.3-0.1-0.4-0.1-0.3 0-0.5 0.2-0.7 0.4-0.3 0.4-0.5 0.4-0.6 0.4l-0.2-0.1c-0.1-0.1-0.2-0.2-0.3-0.4s-0.1-0.3-0.1-0.4c0-0.4-0.2-0.6-0.3-0.8-0.2-0.2-0.3-0.2-0.4-0.2h-0.3c-0.1 0-0.1 0.1-0.2 0.2v0.3l0.2 0.2h0.1c0.1 0 0.3 0 0.5-0.1s0.3-0.3 0.5-0.5c0.1-0.1 0.2-0.3 0.4-0.4s0.3-0.2 0.4-0.2l0.2 0.1c0.1 0.1 0.2 0.3 0.2 0.6s0.1 0.5 0.3 0.6c0.1 0.2 0.4 0.2 0.5 0.2 0.3 0 0.5-0.1 0.6-0.2l0.1-0.1h0.1z" clip-path="url(#a)" fill="#1A2E5A"/>
	<path d="m106.8 84.3c-0.2 0.1-0.8 0.4-0.9-0.4-0.3-1.6-1.6-0.7-1.9-0.2s-0.7 0.5-0.7 0.5 0.4 0.1 0.4 0.7 0.7 2 1.8 0.6c0.5-0.7 1 0.2 1.1 0.4v0.2c0.1 0.2 0.1 1.3-0.7 1.1-1.7-0.3-1.2 1.1-0.8 1.6 0.2 0.4 0 0.7 0 0.7s0.4-0.2 1 0 2.2 0.1 1.2-1.2c-0.5-0.7 0.3-0.8 0.5-0.9h0.1c0.2 0 1.2 0.1 0.8 0.8-0.8 1.4 0.7 1.5 1.3 1.3s0.8 0.1 0.8 0.1-0.2-0.3 0.2-0.8 0.7-2-0.9-1.6c-0.8 0.2-0.7-0.8-0.7-1.1 0-0.2 0.5-1 1-0.4 1.1 1.3 1.7-0.2 1.7-0.9 0-0.6 0.4-0.7 0.4-0.7s-0.4 0.1-0.7-0.4-1.7-1.3-1.8 0.3c-0.1 0.8-0.9 0.5-1.1 0.4s-1-1-0.2-1.2c1.6-0.6 0.5-1.6-0.1-1.8s-0.6-0.6-0.6-0.6 0 0.4-0.6 0.5-1.9 1.1-0.3 1.8c0.6 0.4-0.1 1-0.3 1.2z" clip-path="url(#a)" fill="#fff"/>
	<path d="m106.8 84.3l-0.2-0.3-0.3 0.1s-0.1-0.1-0.1-0.3c-0.1-0.4-0.2-0.7-0.4-0.9s-0.5-0.3-0.7-0.3c-0.3 0-0.6 0.2-0.9 0.3-0.2 0.2-0.4 0.4-0.5 0.6s-0.2 0.2-0.2 0.3h-0.1v0.1-0.1 0.1-0.1c-0.2 0-0.4 0.1-0.4 0.3s0.1 0.4 0.3 0.4v-0.2l-0.1 0.2v-0.2l-0.1 0.2 0.1 0.1s0.1 0.1 0.1 0.3c0 0.3 0.1 0.6 0.3 0.9 0.1 0.1 0.2 0.3 0.4 0.4s0.4 0.2 0.6 0.2c0.4 0 0.8-0.3 1.1-0.7l0.1-0.1 0.2 0.2c0.1 0.1 0.2 0.2 0.2 0.3l0.3-0.2-0.3 0.1v0.2 0.2c0 0.1 0 0.3-0.1 0.4l-0.1 0.1h-0.1-0.1-0.5c-0.3 0-0.6 0.1-0.8 0.3s-0.3 0.5-0.3 0.7c0 0.5 0.2 0.9 0.4 1.2l0.3-0.2-0.3 0.2v0.2 0.1l0.2 0.1-0.1-0.1 0.2 0.1-0.1-0.1c-0.1 0.1-0.1 0.3 0 0.4s0.3 0.1 0.4 0.1l-0.1-0.1 0.1 0.1-0.1-0.1 0.1 0.1s0.1-0.1 0.4-0.1c0.1 0 0.2 0 0.4 0.1s0.4 0.1 0.7 0.1 0.5 0 0.8-0.2l0.3-0.3c0.1-0.1 0.1-0.3 0.1-0.5 0-0.3-0.1-0.6-0.4-0.9-0.1-0.1-0.1-0.2-0.1-0.2l0.2-0.1 0.2-0.1-0.1-0.3v0.3h0.1v-0.3l-0.1 0.3c0.1 0 0.3 0 0.5 0.1l0.1 0.1s0 0.1-0.1 0.2c-0.2 0.3-0.3 0.6-0.3 0.9 0 0.4 0.2 0.7 0.5 0.8s0.6 0.2 0.8 0.2c0.3 0 0.5 0 0.7-0.1 0.1 0 0.2-0.1 0.3-0.1h0.1l0.1-0.1-0.1 0.1 0.1-0.1-0.1 0.1c0.1 0.1 0.1 0.1 0.2 0.1s0.2 0 0.3-0.1 0.1-0.1 0.1-0.2 0-0.2-0.1-0.3l-0.1 0.1 0.2-0.1-0.1 0.1 0.2-0.1v-0.1c0-0.1 0-0.2 0.2-0.3 0.2-0.3 0.4-0.7 0.4-1.1 0-0.2-0.1-0.5-0.3-0.7s-0.5-0.3-0.8-0.3c-0.2 0-0.4 0-0.6 0.1h-0.1-0.1l-0.1-0.1v-0.3-0.3l0.1-0.2 0.1-0.1 0.1 0.1c0.3 0.4 0.7 0.6 1.1 0.6 0.2 0 0.5-0.1 0.6-0.2 0.2-0.2 0.4-0.4 0.5-0.7s0.2-0.5 0.2-0.7 0.1-0.3 0.1-0.3l-0.1-0.2 0.1 0.2-0.1-0.2 0.1 0.2c0.2-0.1 0.3-0.2 0.2-0.4s-0.3-0.3-0.4-0.2v0.2-0.2 0.2-0.2s-0.1 0-0.3-0.3c-0.1-0.2-0.3-0.4-0.6-0.5-0.2-0.2-0.5-0.3-0.8-0.3s-0.5 0.1-0.7 0.3-0.3 0.5-0.3 0.9c0 0.2-0.1 0.2-0.1 0.2h-0.1c-0.1 0-0.4-0.1-0.4-0.1v0.1-0.1 0.1-0.1l-0.2-0.2c-0.1-0.1-0.1-0.3-0.1-0.3l0.1-0.1c0.3-0.1 0.6-0.3 0.8-0.5s0.3-0.4 0.3-0.7c0-0.4-0.2-0.7-0.4-0.9s-0.5-0.4-0.8-0.5c-0.2-0.1-0.3-0.1-0.3-0.2v-0.1h-0.3 0.3-0.3 0.3-0.4-0.3 0.2-0.2 0.2-0.2s0 0.1-0.4 0.2c-0.3 0.1-0.6 0.2-0.8 0.4-0.3 0.2-0.5 0.5-0.5 0.9 0 0.2 0.1 0.4 0.2 0.6 0.2 0.2 0.4 0.3 0.7 0.5 0.1 0 0.1 0.1 0.1 0.1v0.1c-0.1 0.1-0.2 0.3-0.4 0.4l-0.1 0.1-0.1 0.1 0.5 0.1-0.2-0.3 0.2 0.3 0.3 0.2 0.1-0.1-0.4-0.1 0.3 0.2c0.1 0 0.2-0.1 0.3-0.3 0.1-0.1 0.3-0.3 0.3-0.6 0-0.1-0.1-0.3-0.1-0.4-0.1-0.1-0.2-0.2-0.4-0.3s-0.4-0.2-0.5-0.3-0.1-0.1-0.1-0.2 0.1-0.2 0.3-0.4c0.2-0.1 0.4-0.2 0.5-0.3 0.4-0.1 0.6-0.3 0.8-0.4l0.2-0.4c0-0.2-0.1-0.3-0.3-0.4-0.2 0-0.4 0.1-0.4 0.3 0 0.1 0 0.2 0.1 0.4s0.3 0.4 0.7 0.5c0.1 0 0.3 0.2 0.5 0.3s0.2 0.3 0.2 0.4l-0.1 0.2c-0.1 0.1-0.2 0.2-0.5 0.3-0.2 0.1-0.3 0.2-0.4 0.3s-0.2 0.3-0.2 0.4c0 0.3 0.1 0.5 0.3 0.7l0.2 0.2 0.2 0.2c0.1 0.1 0.4 0.2 0.8 0.2 0.2 0 0.4 0 0.6-0.2s0.3-0.4 0.3-0.6c0-0.3 0.1-0.5 0.2-0.6s0.1-0.1 0.2-0.1 0.3 0.1 0.4 0.2c0.2 0.1 0.3 0.2 0.4 0.3 0.3 0.5 0.7 0.6 0.9 0.6h0.2c0.1 0 0.2-0.1 0.2-0.2s0.1-0.2 0-0.3c0-0.1-0.1-0.2-0.2-0.2h-0.3s-0.2 0.1-0.3 0.2c-0.2 0.2-0.3 0.4-0.3 0.8v0.2c0 0.2-0.1 0.5-0.2 0.7-0.1 0.1-0.1 0.2-0.2 0.2l-0.2 0.1c-0.1 0-0.3-0.1-0.5-0.4-0.2-0.2-0.4-0.4-0.7-0.4-0.2 0-0.3 0.1-0.4 0.1-0.2 0.1-0.3 0.3-0.4 0.4s-0.1 0.3-0.2 0.4v0.4c0 0.2 0 0.4 0.1 0.6 0.1 0.1 0.1 0.2 0.3 0.3 0.1 0.1 0.3 0.1 0.5 0.1h0.3c0.2 0 0.3-0.1 0.4-0.1 0.2 0 0.3 0.1 0.3 0.1s0.1 0.1 0.1 0.3-0.1 0.6-0.2 0.7c-0.2 0.3-0.3 0.5-0.3 0.7 0 0.3 0.1 0.4 0.1 0.5 0.1 0.1 0.1 0.1 0.2 0.1s0.2 0 0.3-0.1 0.1-0.1 0.1-0.2 0-0.2-0.1-0.3c0 0-0.3-0.3-0.7-0.3-0.2 0-0.3 0-0.5 0.1-0.1 0-0.3 0.1-0.4 0.1-0.2 0-0.4 0-0.5-0.1s-0.1-0.1-0.1-0.2 0-0.3 0.2-0.6c0.1-0.2 0.2-0.3 0.2-0.5s-0.1-0.4-0.2-0.5c-0.2-0.2-0.4-0.2-0.6-0.3-0.2 0-0.3-0.1-0.4-0.1h-0.1-0.1c-0.1 0-0.3 0.1-0.5 0.2-0.1 0-0.2 0.1-0.3 0.2s-0.2 0.3-0.2 0.4c0 0.2 0.1 0.4 0.2 0.6 0.2 0.3 0.2 0.5 0.2 0.5v0.1s-0.1 0.1-0.2 0.1h-0.4c-0.2 0-0.4 0-0.5-0.1-0.2-0.1-0.4-0.1-0.6-0.1-0.4 0-0.6 0.1-0.7 0.1l0.2 0.3 0.3 0.2s0.1-0.2 0.1-0.5c0-0.2 0-0.3-0.1-0.5s-0.3-0.6-0.3-0.9c0-0.1 0-0.2 0.1-0.2 0 0 0.1-0.1 0.4-0.1h0.4 0.2c0.2 0 0.4-0.1 0.5-0.1 0.2-0.1 0.3-0.3 0.4-0.5s0.1-0.4 0.1-0.5v-0.4-0.2-0.1c0-0.1-0.1-0.2-0.3-0.4-0.1-0.1-0.2-0.2-0.3-0.2-0.1-0.1-0.3-0.1-0.4-0.1-0.3 0-0.5 0.2-0.7 0.4-0.3 0.4-0.5 0.4-0.6 0.4l-0.2-0.1c-0.1-0.1-0.2-0.2-0.3-0.4s-0.1-0.3-0.1-0.4c0-0.4-0.1-0.6-0.3-0.8s-0.3-0.2-0.4-0.2h-0.3c-0.1 0-0.1 0.1-0.2 0.2v0.3l0.2 0.2h0.1c0.1 0 0.3 0 0.5-0.1s0.3-0.3 0.5-0.5c0.1-0.1 0.2-0.3 0.4-0.4s0.3-0.2 0.4-0.2l0.2 0.1c0.1 0.1 0.2 0.2 0.2 0.6 0 0.3 0.1 0.5 0.3 0.6 0.2 0.2 0.4 0.2 0.5 0.2 0.3 0 0.5-0.1 0.6-0.2l0.1-0.1-0.3 0.1z" clip-path="url(#a)" fill="#1A2E5A"/>
	<path d="m119.7 75.5c-0.2 0.1-0.8 0.4-0.9-0.4-0.3-1.6-1.6-0.7-1.9-0.2s-0.7 0.5-0.7 0.5 0.4 0.1 0.4 0.7 0.7 2 1.8 0.6c0.5-0.7 1 0.2 1.1 0.4v0.2c0.1 0.2 0.1 1.3-0.7 1.1-1.7-0.3-1.2 1.1-0.8 1.6 0.2 0.4 0 0.7 0 0.7s0.4-0.2 1 0 2.2 0.2 1.2-1.2c-0.5-0.7 0.3-0.8 0.5-0.9h0.1c0.2 0 1.2 0.1 0.8 0.8-0.9 1.4 0.7 1.5 1.3 1.3s0.8 0.1 0.8 0.1-0.2-0.3 0.2-0.8 0.7-2-0.9-1.6c-0.8 0.2-0.7-0.8-0.7-1s0.5-1 1-0.4c1.1 1.3 1.7-0.2 1.7-0.9 0-0.6 0.4-0.7 0.4-0.7s-0.4 0.1-0.7-0.4-1.7-1.3-1.8 0.3c-0.1 0.8-0.9 0.5-1.1 0.4s-1-1-0.2-1.2c1.6-0.6 0.5-1.6-0.1-1.8s-0.6-0.6-0.6-0.6 0 0.4-0.6 0.5-1.9 1.1-0.3 1.8c0.7 0.3 0 0.9-0.3 1.1z" clip-path="url(#a)" fill="#fff"/>
	<path d="m119.7 75.5l-0.2-0.3-0.3 0.1s-0.1-0.1-0.1-0.3c-0.1-0.4-0.2-0.7-0.4-0.9s-0.5-0.3-0.7-0.3c-0.3 0-0.6 0.1-0.9 0.3l-0.6 0.6c-0.1 0.2-0.2 0.2-0.2 0.3h-0.1v0.2-0.2 0.2-0.2c-0.2 0-0.4 0.1-0.4 0.3s0.1 0.4 0.3 0.4v-0.2l-0.1 0.2v-0.2l-0.1 0.2s0.1 0.1 0.1 0.4 0.1 0.6 0.3 0.9c0.1 0.1 0.2 0.3 0.4 0.4s0.3 0.2 0.6 0.2c0.4 0 0.8-0.3 1.1-0.7l0.1-0.1c0.1 0 0.1 0.1 0.2 0.2s0.1 0.2 0.2 0.3l0.3-0.2-0.3 0.1v0.2 0.2c0 0.1 0 0.3-0.1 0.4l-0.1 0.1h-0.1-0.1-0.5c-0.3 0-0.6 0.1-0.8 0.3s-0.3 0.5-0.3 0.7c0 0.5 0.2 0.9 0.4 1.2l0.1 0.2v0.1l0.1 0.1-0.1-0.1 0.1 0.1-0.1-0.1c-0.1 0.1-0.1 0.3 0 0.4s0.3 0.1 0.4 0.1l-0.1-0.1v0.1l-0.1-0.1v0.1s0.1-0.1 0.4-0.1c0.1 0 0.2 0 0.4 0.1s0.4 0.1 0.7 0.1 0.5 0 0.8-0.2l0.3-0.3c0.1-0.1 0.1-0.3 0.1-0.5 0-0.3-0.1-0.6-0.4-0.9-0.1-0.1-0.1-0.2-0.1-0.2l0.2-0.1 0.2-0.1-0.1-0.3v0.3h0.1v-0.3 0.3c0.1 0 0.3 0 0.5 0.1l0.1 0.1s0 0.1-0.1 0.2c-0.2 0.3-0.3 0.6-0.3 0.9 0 0.4 0.2 0.7 0.5 0.8 0.3 0.2 0.6 0.2 0.8 0.2 0.3 0 0.5 0 0.7-0.1 0.1-0.1 0.2-0.1 0.3-0.1h0.1l0.1-0.1-0.1 0.1 0.1-0.1-0.1 0.1c0.1 0.1 0.1 0.1 0.2 0.1s0.2 0 0.3-0.1 0.1-0.1 0.1-0.2 0-0.2-0.1-0.3l-0.1 0.1 0.2-0.1-0.1 0.1 0.2-0.1v-0.1s0-0.2 0.2-0.3c0.2-0.3 0.4-0.7 0.4-1.1 0-0.2-0.1-0.5-0.2-0.7-0.2-0.2-0.5-0.3-0.9-0.3-0.2 0-0.4 0-0.6 0.1h-0.1-0.1l-0.1-0.1v-0.3-0.3l0.1-0.2 0.1-0.1 0.1 0.1c0.3 0.4 0.7 0.6 1.1 0.6 0.2 0 0.4-0.1 0.6-0.2 0.2-0.2 0.4-0.4 0.5-0.7s0.2-0.5 0.2-0.7 0.1-0.3 0.1-0.3l-0.1-0.2 0.1 0.2-0.1-0.2 0.1 0.2c0.2-0.1 0.3-0.2 0.2-0.4s-0.3-0.3-0.4-0.2v0.2-0.2 0.2-0.2s-0.1 0-0.3-0.3c-0.1-0.2-0.3-0.4-0.6-0.5-0.2-0.2-0.5-0.3-0.8-0.3s-0.5 0.1-0.7 0.3-0.3 0.5-0.3 1c0 0.2-0.1 0.2-0.1 0.2h-0.1c-0.1 0-0.4-0.1-0.4-0.1v0.1-0.1 0.1-0.1l-0.2-0.2c-0.1-0.1-0.1-0.3-0.1-0.3l0.1-0.1c0.3-0.1 0.6-0.3 0.8-0.5s0.3-0.4 0.3-0.7c0-0.4-0.2-0.7-0.4-0.9s-0.5-0.4-0.8-0.5c-0.2-0.1-0.3-0.2-0.3-0.2v-0.1h0.2 0.3-0.3 0.3-0.3-0.3 0.2-0.2 0.2-0.2s0 0.1-0.4 0.2c-0.3 0.1-0.6 0.2-0.8 0.4-0.3 0.2-0.5 0.5-0.5 0.9 0 0.2 0.1 0.4 0.3 0.6s0.4 0.3 0.7 0.5c0.1 0 0.1 0.1 0.1 0.1l-0.2 0.2-0.2 0.2-0.1 0.1 0.1 0.2-0.2-0.3 0.2 0.3 0.3 0.2 0.1-0.1-0.4-0.1 0.3 0.2s0.2-0.1 0.3-0.3c0.1-0.1 0.3-0.3 0.3-0.6 0-0.1-0.1-0.3-0.2-0.4s-0.2-0.2-0.4-0.3-0.4-0.2-0.5-0.3-0.1-0.1-0.1-0.2 0.1-0.2 0.3-0.4c0.2-0.1 0.4-0.2 0.5-0.3 0.4-0.1 0.6-0.3 0.8-0.4 0.1-0.2 0.1-0.3 0.1-0.4 0-0.2-0.1-0.3-0.3-0.4-0.2 0-0.4 0.1-0.4 0.3 0 0.1 0 0.2 0.1 0.4s0.3 0.4 0.7 0.5c0.1 0 0.3 0.2 0.5 0.3s0.2 0.3 0.2 0.4l-0.1 0.2c-0.1 0.1-0.2 0.2-0.5 0.3-0.2 0.1-0.3 0.2-0.4 0.3s-0.2 0.3-0.2 0.4c0 0.3 0.1 0.5 0.3 0.7 0.1 0.1 0.1 0.2 0.2 0.2l0.2 0.2c0.1 0.1 0.4 0.2 0.8 0.2 0.2 0 0.4 0 0.6-0.2 0.2-0.1 0.3-0.4 0.3-0.6 0-0.3 0.1-0.5 0.2-0.6s0.1-0.1 0.2-0.1 0.3 0.1 0.4 0.2c0.2 0.1 0.3 0.3 0.4 0.3 0.3 0.5 0.7 0.6 0.9 0.6h0.2c0.1 0 0.2-0.1 0.2-0.2 0.1-0.1 0.1-0.2 0-0.3l-0.2-0.2h-0.3s-0.2 0.1-0.3 0.2c-0.2 0.2-0.3 0.4-0.3 0.8v0.1c0 0.2-0.1 0.5-0.2 0.7-0.1 0.1-0.1 0.2-0.2 0.3l-0.2 0.1c-0.1 0-0.3-0.1-0.6-0.4-0.2-0.2-0.4-0.4-0.7-0.4-0.2 0-0.3 0.1-0.4 0.1-0.2 0.1-0.3 0.2-0.4 0.4-0.1 0.1-0.1 0.3-0.1 0.4v0.4c0 0.2 0 0.4 0.1 0.6l0.3 0.3c0.1 0.1 0.3 0.1 0.4 0.1h0.3c0.2 0 0.3-0.1 0.4-0.1 0.2 0 0.3 0.1 0.3 0.1s0.1 0.1 0.1 0.3-0.1 0.6-0.2 0.7c-0.2 0.3-0.3 0.5-0.3 0.7 0 0.3 0.1 0.4 0.1 0.5 0.1 0.2 0.3 0.2 0.5 0.1s0.2-0.3 0.1-0.5c0-0.1-0.3-0.3-0.7-0.3-0.2 0-0.3 0-0.5 0.1-0.1 0-0.3 0.1-0.5 0.1s-0.4 0-0.5-0.1-0.1-0.1-0.1-0.2 0-0.3 0.2-0.6c0.1-0.2 0.1-0.3 0.1-0.5s-0.1-0.4-0.2-0.5c-0.2-0.2-0.4-0.2-0.6-0.3-0.2 0-0.3-0.1-0.4-0.1h-0.1-0.1c-0.1 0-0.3 0.1-0.5 0.2-0.1 0-0.2 0.1-0.3 0.2s-0.2 0.3-0.2 0.4c0 0.2 0.1 0.4 0.2 0.6 0.2 0.3 0.2 0.5 0.2 0.6v0.1s-0.1 0.1-0.2 0.1h-0.4c-0.2 0-0.4 0-0.5-0.1-0.2-0.1-0.4-0.1-0.6-0.1-0.4 0-0.7 0.1-0.7 0.1l0.2 0.3 0.3 0.2s0.1-0.2 0.2-0.5c0-0.2 0-0.3-0.1-0.5s-0.3-0.6-0.3-0.9c0-0.1 0-0.2 0.1-0.2 0 0 0.1-0.1 0.3-0.1h0.4 0.2c0.2 0 0.4 0 0.5-0.1 0.2-0.1 0.3-0.3 0.4-0.5s0.1-0.4 0.1-0.5v-0.4-0.2-0.1c0-0.1-0.1-0.2-0.3-0.4-0.1-0.1-0.2-0.2-0.3-0.2-0.1-0.1-0.3-0.1-0.4-0.1-0.3 0-0.5 0.2-0.7 0.4-0.3 0.4-0.5 0.4-0.6 0.4l-0.2-0.1c-0.1-0.1-0.2-0.2-0.3-0.4s0.1-0.2 0.1-0.3c0-0.4-0.2-0.7-0.3-0.8-0.2-0.2-0.3-0.2-0.4-0.2h-0.3l-0.2 0.2v0.3c0 0.1 0.1 0.1 0.2 0.2h0.1c0.1 0 0.3 0 0.5-0.1s0.3-0.3 0.5-0.5c0.1-0.1 0.2-0.3 0.4-0.4s0.3-0.2 0.4-0.2l0.2 0.1c0.1 0.1 0.2 0.2 0.2 0.6 0 0.3 0.1 0.5 0.3 0.6 0.1 0.2 0.4 0.2 0.5 0.2 0.3 0 0.5-0.1 0.6-0.2l0.1-0.1-0.1-0.2z" clip-path="url(#a)" fill="#002B5C"/>
	<path d="m93.5 75.1c-0.2 0.1-0.8 0.4-0.9-0.4-0.3-1.6-1.6-0.7-1.9-0.2-0.3 0.6-0.7 0.5-0.7 0.5s0.4 0.1 0.4 0.7 0.7 2 1.8 0.6c0.5-0.7 1 0.2 1.1 0.4v0.2c0 0.2 0.1 1.3-0.7 1.1-1.7-0.3-1.2 1.1-0.8 1.6 0.2 0.4 0 0.7 0 0.7s0.4-0.2 1 0 2.2 0.1 1.2-1.2c-0.5-0.7 0.3-0.8 0.5-0.9h0.1c0.2 0 1.2 0.1 0.8 0.8-0.9 1.5 0.7 1.6 1.3 1.3 0.6-0.2 0.8 0.1 0.8 0.1s-0.2-0.3 0.2-0.8 0.7-2-0.9-1.6c-0.8 0.2-0.7-0.8-0.7-1.1 0-0.2 0.5-1 1-0.4 1.1 1.3 1.7-0.2 1.7-0.9 0-0.6 0.4-0.7 0.4-0.7s-0.4 0.1-0.7-0.4-1.7-1.3-1.8 0.3c-0.1 0.8-0.9 0.5-1.1 0.4s-1-1-0.2-1.2c1.6-0.6 0.5-1.6-0.1-1.8s-0.6-0.6-0.6-0.6 0 0.4-0.6 0.5-1.9 1.1-0.3 1.8c0.7 0.5 0 1-0.3 1.2z" clip-path="url(#a)" fill="#fff"/>
	<path d="m94.8 77.3c0.4 0 0.8-0.3 0.9-0.8 0-0.5-0.3-0.9-0.8-0.9-0.4 0-0.8 0.3-0.8 0.8-0.1 0.5 0.3 0.9 0.7 0.9" clip-path="url(#a)" fill="#1A2E5A"/>
	<path d="m94.8 77.3c0.5 0.1 0.9-0.3 0.9-0.8s-0.3-0.9-0.8-0.9-0.8 0.4-0.9 0.9v0.1c0 0.3 0.3 0.8 0.8 0.7-0.4-0.1-0.7-0.4-0.7-0.8s0.3-0.7 0.7-0.7 0.7 0.4 0.7 0.8c0.1 0.3-0.3 0.6-0.7 0.7z" clip-path="url(#a)" fill="#1A2E5A"/>
	<path d="m94.7 73.6c0.3 0 0.6-0.2 0.6-0.5s-0.2-0.5-0.5-0.5-0.5 0.2-0.6 0.5 0.2 0.5 0.5 0.5" clip-path="url(#a)" fill="#0D2240"/>
	<path d="m94.7 73.6c0.4 0.1 0.6-0.2 0.6-0.5s-0.3-0.6-0.6-0.6-0.6 0.2-0.6 0.6c0 0.3 0.2 0.6 0.6 0.5-0.2-0.1-0.4-0.3-0.4-0.5s0.2-0.4 0.5-0.4 0.4 0.2 0.4 0.4c-0.1 0.3-0.3 0.5-0.5 0.5z" clip-path="url(#a)" fill="#1A2E5A"/>
	<path d="m91.5 76c0.3 0 0.5-0.2 0.6-0.5 0-0.3-0.2-0.5-0.5-0.6-0.3 0-0.6 0.2-0.6 0.5s0.2 0.6 0.5 0.6" clip-path="url(#a)" fill="#1A2E5A"/>
	<path d="m91.5 76c0.4 0.1 0.6-0.2 0.6-0.5s-0.3-0.6-0.6-0.6-0.6 0.2-0.6 0.6c0.1 0.3 0.3 0.5 0.6 0.5-0.2-0.1-0.4-0.3-0.4-0.5s0.2-0.4 0.5-0.4v-0.1 0.1c0.2 0 0.4 0.2 0.4 0.5 0 0.1-0.2 0.3-0.5 0.4z" clip-path="url(#a)" fill="#1A2E5A"/>
	<path d="m98 76.1c0.3 0 0.5-0.2 0.6-0.5 0-0.3-0.2-0.5-0.5-0.5s-0.5 0.2-0.6 0.5 0.2 0.5 0.5 0.5" clip-path="url(#a)" fill="#1A2E5A"/>
	<path d="m98 76.1c0.4 0.1 0.6-0.2 0.6-0.5s-0.3-0.6-0.6-0.6-0.6 0.2-0.6 0.6c0 0.3 0.2 0.6 0.6 0.5-0.3-0.1-0.4-0.3-0.4-0.5s0.2-0.4 0.5-0.4c0.2 0 0.4 0.2 0.4 0.4 0 0.3-0.3 0.5-0.5 0.5z" clip-path="url(#a)" fill="#1A2E5A"/>
	<path d="m96.7 79.9c0.3 0 0.5-0.2 0.6-0.5 0-0.3-0.2-0.5-0.5-0.5s-0.6 0.2-0.6 0.5c0 0.2 0.2 0.5 0.5 0.5" clip-path="url(#a)" fill="#0D2240"/>
	<path d="m96.7 79.9c0.3 0.1 0.6-0.2 0.6-0.5s-0.2-0.6-0.6-0.6c-0.3 0-0.6 0.2-0.6 0.6 0 0.3 0.3 0.6 0.6 0.5-0.2-0.1-0.4-0.3-0.4-0.5s0.2-0.4 0.5-0.4c0.2 0 0.4 0.2 0.4 0.5 0 0.2-0.2 0.3-0.5 0.4z" clip-path="url(#a)" fill="#1A2E5A"/>
	<path d="m92.8 79.7c0.3 0 0.5-0.2 0.6-0.5 0-0.3-0.2-0.5-0.5-0.5s-0.6 0.2-0.6 0.5c0 0.2 0.2 0.5 0.5 0.5" clip-path="url(#a)" fill="#0D2240"/>
	<path d="m92.8 79.7c0.4 0.1 0.6-0.2 0.6-0.5s-0.3-0.6-0.6-0.6-0.6 0.2-0.6 0.6c0 0.3 0.2 0.6 0.6 0.5-0.2-0.1-0.4-0.3-0.4-0.5s0.2-0.4 0.5-0.4 0.4 0.2 0.4 0.5c0 0.2-0.3 0.3-0.5 0.4z" clip-path="url(#a)" fill="#1A2E5A"/>
	<path d="m94.7 73.4c0.3 0 0.5-0.2 0.5-0.4 0-0.3-0.2-0.5-0.5-0.5s-0.5 0.2-0.5 0.4 0.2 0.4 0.5 0.5" clip-path="url(#a)" fill="#fff"/>
	<path d="m94.7 73.4c0.3 0.1 0.6-0.2 0.6-0.4 0-0.3-0.2-0.5-0.5-0.5s-0.5 0.2-0.6 0.5h0.1-0.1c0 0.2 0.2 0.4 0.5 0.4-0.2-0.1-0.4-0.3-0.4-0.5s0.2-0.4 0.4-0.4 0.4 0.2 0.4 0.4-0.2 0.4-0.4 0.5z" clip-path="url(#a)" fill="#fff"/>
	<path d="m91.5 75.6c0.3 0 0.5-0.2 0.5-0.4 0-0.3-0.2-0.5-0.5-0.5s-0.5 0.2-0.5 0.4c0.1 0.3 0.3 0.5 0.5 0.5" clip-path="url(#a)" fill="#fff"/>
	<path d="m91.5 75.6c0.3 0.1 0.6-0.2 0.6-0.4h-0.1 0.1c0-0.3-0.2-0.5-0.5-0.5s-0.5 0.2-0.6 0.5c0 0.3 0.2 0.5 0.5 0.4-0.2-0.1-0.4-0.3-0.4-0.5s0.2-0.4 0.4-0.4 0.4 0.2 0.4 0.4c0.1 0.3-0.1 0.5-0.4 0.5z" clip-path="url(#a)" fill="#fff"/>
	<path d="m98 75.8c0.3 0 0.5-0.2 0.5-0.4 0-0.3-0.2-0.5-0.5-0.5s-0.5 0.2-0.5 0.4c0 0.3 0.2 0.5 0.5 0.5" clip-path="url(#a)" fill="#fff"/>
	<path d="m98 75.8c0.3 0.1 0.6-0.2 0.6-0.4 0-0.3-0.2-0.5-0.5-0.5s-0.5 0.2-0.6 0.5c-0.1 0.2 0.2 0.5 0.5 0.4-0.2-0.1-0.4-0.3-0.4-0.5s0.2-0.4 0.4-0.4 0.4 0.2 0.4 0.4c0 0.3-0.2 0.4-0.4 0.5z" clip-path="url(#a)" fill="#fff"/>
	<path d="m96.7 79.6c0.3 0 0.5-0.2 0.5-0.4 0-0.3-0.2-0.5-0.5-0.5s-0.5 0.2-0.5 0.5c0 0.2 0.2 0.4 0.5 0.4" clip-path="url(#a)" fill="#fff"/>
	<path d="m96.7 79.6c0.3 0.1 0.6-0.2 0.6-0.4 0-0.3-0.2-0.5-0.5-0.5s-0.5 0.2-0.6 0.5c-0.1 0.2 0.2 0.5 0.5 0.4-0.2-0.1-0.4-0.3-0.4-0.5s0.2-0.4 0.4-0.4 0.4 0.2 0.4 0.4c0 0.3-0.2 0.5-0.4 0.5z" clip-path="url(#a)" fill="#fff"/>
	<path d="m92.8 79.5c0.3 0 0.5-0.2 0.5-0.4 0-0.3-0.2-0.5-0.5-0.5s-0.5 0.2-0.5 0.4 0.2 0.4 0.5 0.5" clip-path="url(#a)" fill="#fff"/>
	<path d="m92.8 79.5c0.3 0.1 0.6-0.2 0.6-0.4 0-0.3-0.2-0.5-0.5-0.5s-0.5 0.2-0.6 0.5c0 0.2 0.2 0.4 0.5 0.4-0.2-0.1-0.4-0.3-0.4-0.5s0.2-0.4 0.4-0.4 0.4 0.2 0.4 0.4-0.2 0.4-0.4 0.5z" clip-path="url(#a)" fill="#fff"/>
	<path d="m94.8 76.9c0.4 0 0.8-0.3 0.8-0.7s-0.3-0.8-0.7-0.8-0.8 0.3-0.8 0.7c0 0.5 0.3 0.8 0.7 0.8" clip-path="url(#a)" fill="#fff"/>
	<path d="m94.8 76.9c0.5 0.1 0.9-0.3 0.9-0.7s-0.3-0.8-0.8-0.8c-0.4 0-0.8 0.3-0.8 0.8-0.1 0.4 0.3 0.8 0.7 0.7-0.4-0.1-0.7-0.4-0.7-0.7 0-0.4 0.3-0.6 0.7-0.6s0.7 0.3 0.7 0.7c0.1 0.3-0.3 0.6-0.7 0.6z" clip-path="url(#a)" fill="#fff"/>
	<path d="m99.7 56.2v0.3h17.5 0.1c0.3 0 1 0.1 1.8 0.5s1.6 1.2 2.1 2.7l0.3-0.1-0.3 0.1v0.2l5.1 15.5c0.1 0.2 0.3 1 0.3 1.9 0 0.5-0.1 1.1-0.3 1.7-0.2 0.5-0.6 1.1-1.2 1.5l-0.1 0.1-14.6 10c-0.1 0.1-1.1 0.9-2.6 0.9-0.8 0-1.8-0.2-2.9-1l-0.2-0.1-13.2-9.4c-0.1-0.1-0.7-0.5-1.2-1.2s-1-1.6-1-2.7c0-0.4 0.1-0.8 0.2-1.2l5.5-16.4c0-0.1 0.2-0.9 0.9-1.6 0.6-0.7 1.7-1.3 3.6-1.3v-0.3 0.3h0.3v-0.4-0.3h-0.3c-2.2 0-3.5 0.9-4.3 1.7-0.7 0.9-0.9 1.7-0.9 1.8l0.3 0.1-0.3-0.1-5.5 16.5c-0.2 0.5-0.2 1-0.2 1.4 0 1.4 0.7 2.5 1.3 3.2 0.6 0.8 1.3 1.2 1.3 1.2l0.2-0.3-0.2 0.3 13.2 9.4 0.2 0.1 0.2-0.3-0.2 0.3c1.2 0.9 2.4 1.2 3.4 1.2 1.9 0 3-1 3.1-1l-0.2-0.3 0.2 0.3 14.6-10 0.1-0.1-0.2-0.2 0.2 0.3c0.7-0.5 1.1-1.1 1.4-1.8s0.3-1.3 0.3-1.9c0-1.2-0.3-2.1-0.3-2.2l-5.1-15.5v-0.2c-0.6-1.7-1.5-2.6-2.4-3.1s-1.7-0.6-2.1-0.6h-0.2v0.3-0.3h-17.5v0.1-0.3l-0.2 0.3z" clip-path="url(#a)" fill="#1A2E5A"/>
	<path d="m107.9 79.5v12.4s1.4 0.2 5.6-3 3.9-2.6 3.9-2.6l0.2-0.2-9.7-6.6z" clip-path="url(#a)" fill="#1A2E5A"/>
	<rect x="92.4" y="65.5" width="31.2" height=".7" clip-path="url(#a)" fill="#1A2E5A"/>
	<path d="m106.8 84.3c-0.2 0.1-0.8 0.4-0.9-0.4-0.3-1.6-1.6-0.7-1.9-0.2s-0.7 0.5-0.7 0.5 0.4 0.1 0.4 0.7 0.7 2 1.8 0.6c0.5-0.7 1 0.2 1.1 0.4v0.2c0.1 0.2 0.1 1.3-0.7 1.1-1.7-0.3-1.2 1.1-0.8 1.6 0.2 0.4 0 0.7 0 0.7s0.4-0.2 1 0 2.2 0.1 1.2-1.2c-0.5-0.7 0.3-0.8 0.5-0.9h0.1c0.2 0 1.2 0.1 0.8 0.8-0.8 1.4 0.7 1.5 1.3 1.3s0.8 0.1 0.8 0.1-0.2-0.3 0.2-0.8 0.7-2-0.9-1.6c-0.8 0.2-0.7-0.8-0.7-1s0.5-1 1-0.4c1.1 1.3 1.7-0.2 1.7-0.9 0-0.6 0.4-0.7 0.4-0.7s-0.4 0.1-0.7-0.4-1.7-1.3-1.8 0.3c-0.1 0.8-0.9 0.5-1.1 0.4s-1-1-0.2-1.2c1.6-0.6 0.5-1.6-0.1-1.8s-0.6-0.6-0.6-0.6 0 0.4-0.6 0.5-1.9 1.1-0.3 1.8c0.6 0.3-0.1 0.9-0.3 1.1z" clip-path="url(#a)" fill="#fff"/>
	<path d="m108 86.5c0.4 0 0.8-0.3 0.8-0.8s-0.3-0.9-0.8-0.9c-0.4 0-0.8 0.3-0.8 0.8 0.1 0.5 0.4 0.9 0.8 0.9" clip-path="url(#a)" fill="#1A2E5A"/>
	<path d="m108 86.5c0.5 0.1 0.9-0.3 0.9-0.8s-0.4-0.9-0.8-0.9c-0.5 0-0.8 0.4-0.9 0.9v0.1c0 0.3 0.4 0.7 0.8 0.7-0.4-0.1-0.7-0.4-0.7-0.8s0.4-0.7 0.7-0.7c0.4 0 0.7 0.4 0.7 0.8 0.1 0.3-0.2 0.6-0.7 0.7z" clip-path="url(#a)" fill="#1A2E5A"/>
	<path d="m107.9 82.8c0.3 0 0.6-0.2 0.6-0.5s-0.2-0.5-0.5-0.5-0.5 0.2-0.6 0.5c0 0.2 0.2 0.5 0.5 0.5" clip-path="url(#a)" fill="#0D2240"/>
	<path d="m107.9 82.8c0.3 0.1 0.6-0.2 0.6-0.5s-0.3-0.6-0.6-0.6v0.1-0.1c-0.3 0-0.6 0.2-0.6 0.6 0 0.3 0.3 0.6 0.6 0.5-0.2-0.1-0.4-0.3-0.4-0.5s0.2-0.4 0.5-0.4c0.2 0 0.4 0.2 0.4 0.5 0 0.1-0.2 0.3-0.5 0.4z" clip-path="url(#a)" fill="#1A2E5A"/>
	<path d="m104.8 85.2c0.3 0 0.6-0.2 0.6-0.5s-0.2-0.5-0.5-0.5-0.5 0.2-0.6 0.5c-0.1 0.2 0.2 0.4 0.5 0.5" clip-path="url(#a)" fill="#1A2E5A"/>
	<path d="m104.8 85.2c0.4 0.1 0.6-0.2 0.6-0.5s-0.3-0.6-0.6-0.6-0.6 0.2-0.6 0.6c0 0.2 0.2 0.5 0.6 0.5-0.3-0.1-0.4-0.3-0.4-0.5s0.2-0.4 0.5-0.4 0.4 0.2 0.4 0.5c0 0.1-0.3 0.3-0.5 0.4z" clip-path="url(#a)" fill="#1A2E5A"/>
	<path d="m111.2 85.3c0.3 0 0.6-0.2 0.6-0.5s-0.2-0.5-0.5-0.5-0.5 0.2-0.6 0.5c0 0.3 0.2 0.5 0.5 0.5" clip-path="url(#a)" fill="#1A2E5A"/>
	<path d="m111.2 85.3c0.4 0.1 0.6-0.2 0.6-0.5h-0.1 0.1c0-0.3-0.3-0.6-0.6-0.6s-0.6 0.2-0.6 0.6c0 0.3 0.3 0.6 0.6 0.5-0.2-0.1-0.4-0.3-0.4-0.5s0.2-0.4 0.5-0.4v-0.1 0.1c0.2 0 0.4 0.2 0.4 0.4 0 0.3-0.2 0.4-0.5 0.5z" clip-path="url(#a)" fill="#1A2E5A"/>
	<path d="m109.9 89.1c0.3 0 0.5-0.2 0.6-0.5 0-0.3-0.2-0.5-0.5-0.6-0.3 0-0.5 0.2-0.6 0.5 0 0.3 0.2 0.6 0.5 0.6" clip-path="url(#a)" fill="#0D2240"/>
	<path d="m109.9 89.1c0.3 0.1 0.6-0.2 0.6-0.5s-0.3-0.6-0.6-0.6-0.6 0.2-0.6 0.6c0 0.3 0.3 0.5 0.6 0.5-0.2-0.1-0.4-0.3-0.4-0.5s0.2-0.4 0.5-0.4c0.2 0 0.4 0.2 0.4 0.5 0 0.1-0.2 0.3-0.5 0.4z" clip-path="url(#a)" fill="#1A2E5A"/>
	<path d="m106 88.9c0.3 0 0.6-0.2 0.6-0.5s-0.2-0.5-0.5-0.5-0.6 0.2-0.6 0.5c0 0.2 0.2 0.5 0.5 0.5" clip-path="url(#a)" fill="#0D2240"/>
	<path d="m106 88.9c0.3 0.1 0.6-0.2 0.6-0.5s-0.3-0.6-0.6-0.6-0.6 0.2-0.6 0.6c0 0.3 0.3 0.5 0.6 0.5-0.2-0.1-0.4-0.3-0.4-0.5s0.2-0.4 0.5-0.4c0.2 0 0.4 0.2 0.4 0.4h0.1-0.1c0 0.2-0.2 0.4-0.5 0.5z" clip-path="url(#a)" fill="#1A2E5A"/>
	<path d="m107.9 82.5c0.3 0 0.5-0.2 0.5-0.4 0-0.3-0.2-0.5-0.5-0.5s-0.5 0.2-0.5 0.4c0 0.3 0.2 0.5 0.5 0.5" clip-path="url(#a)" fill="#fff"/>
	<path d="m107.9 82.5c0.3 0.1 0.6-0.2 0.6-0.4 0-0.3-0.2-0.5-0.5-0.5v0.1-0.1c-0.3 0-0.5 0.2-0.5 0.5-0.1 0.3 0.1 0.5 0.4 0.4-0.2-0.1-0.4-0.3-0.4-0.5s0.2-0.4 0.4-0.4 0.4 0.2 0.4 0.4c0 0.3-0.1 0.5-0.4 0.5z" clip-path="url(#a)" fill="#fff"/>
	<path d="m104.8 84.8c0.3 0 0.5-0.2 0.5-0.4 0-0.3-0.2-0.5-0.5-0.5s-0.5 0.2-0.5 0.4c0 0.3 0.2 0.5 0.5 0.5" clip-path="url(#a)" fill="#fff"/>
	<path d="m104.8 84.8c0.3 0.1 0.6-0.2 0.6-0.4 0-0.3-0.2-0.5-0.5-0.5v0.1-0.1c-0.3 0-0.5 0.2-0.6 0.5-0.1 0.2 0.2 0.5 0.5 0.4-0.2-0.1-0.4-0.3-0.4-0.5s0.2-0.4 0.4-0.4 0.4 0.2 0.4 0.4c0 0.3-0.2 0.5-0.4 0.5z" clip-path="url(#a)" fill="#fff"/>
	<path d="m111.2 85c0.3 0 0.5-0.2 0.5-0.4 0-0.3-0.2-0.5-0.5-0.5s-0.5 0.2-0.5 0.4 0.2 0.5 0.5 0.5" clip-path="url(#a)" fill="#fff"/>
	<path d="m111.2 85c0.3 0.1 0.6-0.2 0.6-0.4 0-0.3-0.2-0.5-0.5-0.5s-0.5 0.2-0.6 0.5c0 0.2 0.2 0.4 0.5 0.4-0.2-0.1-0.4-0.3-0.4-0.5s0.2-0.4 0.4-0.4 0.4 0.2 0.4 0.4h0.1-0.1c0 0.2-0.2 0.4-0.4 0.5z" clip-path="url(#a)" fill="#fff"/>
	<path d="m109.9 88.8c0.3 0 0.5-0.2 0.5-0.4 0-0.3-0.2-0.5-0.5-0.5s-0.5 0.2-0.5 0.5c0 0.2 0.2 0.4 0.5 0.4" clip-path="url(#a)" fill="#fff"/>
	<path d="m109.9 88.8c0.3 0.1 0.6-0.1 0.6-0.4s-0.2-0.5-0.5-0.5-0.5 0.2-0.6 0.5c0 0.2 0.2 0.5 0.5 0.4-0.2-0.1-0.4-0.3-0.4-0.5s0.2-0.4 0.4-0.4 0.4 0.2 0.4 0.4c0 0.3-0.2 0.4-0.4 0.5z" clip-path="url(#a)" fill="#fff"/>
	<path d="m106 88.6c0.3 0 0.5-0.2 0.5-0.4 0-0.3-0.2-0.5-0.5-0.5s-0.5 0.2-0.5 0.5c0 0.2 0.2 0.4 0.5 0.4" clip-path="url(#a)" fill="#fff"/>
	<path d="m106 88.6c0.3 0.1 0.6-0.2 0.6-0.4 0-0.3-0.2-0.5-0.5-0.5s-0.5 0.2-0.6 0.5c0 0.2 0.2 0.5 0.5 0.4-0.2-0.1-0.4-0.3-0.4-0.5s0.2-0.4 0.4-0.4 0.4 0.2 0.4 0.4c0 0.3-0.1 0.5-0.4 0.5z" clip-path="url(#a)" fill="#fff"/>
	<path d="m108.1 86.1c0.4 0 0.8-0.3 0.8-0.7s-0.3-0.8-0.7-0.8-0.8 0.3-0.8 0.7c-0.1 0.4 0.2 0.8 0.7 0.8" clip-path="url(#a)" fill="#fff"/>
	<path d="m108.1 86.1c0.5 0.1 0.9-0.3 0.9-0.7s-0.3-0.8-0.8-0.8c-0.4 0-0.8 0.3-0.8 0.8-0.1 0.4 0.2 0.8 0.7 0.7-0.4-0.1-0.7-0.4-0.7-0.7 0-0.4 0.3-0.6 0.7-0.6s0.7 0.3 0.7 0.7c0 0.3-0.3 0.6-0.7 0.6z" clip-path="url(#a)" fill="#fff"/>
	<path d="m123.9 67.8l-13.2 9.1 10 6.9s6-3.3 6.2-5.6c0-2.2-2.3-9.6-3-10.4" clip-path="url(#a)" fill="#1A2E5A"/>
	<path d="m119.7 75.5c-0.2 0.1-0.8 0.4-0.9-0.4-0.3-1.6-1.6-0.7-1.9-0.2s-0.7 0.5-0.7 0.5 0.4 0.1 0.4 0.7 0.7 2 1.8 0.6c0.5-0.7 1 0.2 1.1 0.4v0.2c0.1 0.2 0.1 1.3-0.7 1.1-1.7-0.3-1.2 1.1-0.8 1.6 0.2 0.4 0 0.7 0 0.7s0.4-0.2 1 0 2.2 0.2 1.2-1.2c-0.5-0.7 0.3-0.8 0.5-0.9h0.1c0.2 0 1.2 0.1 0.8 0.8-0.9 1.4 0.7 1.5 1.3 1.3s0.8 0.1 0.8 0.1-0.2-0.3 0.2-0.8 0.7-2-0.9-1.6c-0.8 0.2-0.7-0.8-0.7-1s0.5-1 1-0.4c1.1 1.3 1.7-0.2 1.7-0.9 0-0.6 0.4-0.7 0.4-0.7s-0.4 0.1-0.7-0.4-1.7-1.3-1.8 0.3c-0.1 0.8-0.9 0.5-1.1 0.4s-1-1-0.2-1.2c1.6-0.6 0.5-1.6-0.1-1.8s-0.6-0.6-0.6-0.6 0 0.4-0.6 0.5-1.9 1.1-0.3 1.8c0.7 0.3 0 0.9-0.3 1.1z" clip-path="url(#a)" fill="#fff"/>
	<path d="m121 77.7c0.4 0 0.8-0.3 0.8-0.8s-0.3-0.9-0.8-0.9c-0.4 0-0.8 0.3-0.8 0.8 0 0.4 0.4 0.8 0.8 0.9" clip-path="url(#a)" fill="#1A2E5A"/>
	<path d="m121 77.7c0.5 0.1 0.9-0.3 0.9-0.8v-0.1c0-0.5-0.4-0.9-0.8-0.9-0.5 0-0.8 0.4-0.9 0.9v0.1c0 0.4 0.3 0.8 0.8 0.8-0.4-0.1-0.7-0.4-0.7-0.8s0.4-0.7 0.7-0.7c0.4 0 0.7 0.4 0.7 0.8 0 0.3-0.3 0.6-0.7 0.7z" clip-path="url(#a)" fill="#1A2E5A"/>
	<path d="m120.8 74c0.3 0 0.6-0.2 0.6-0.5s-0.2-0.5-0.5-0.5-0.5 0.2-0.6 0.5c0 0.2 0.2 0.5 0.5 0.5" clip-path="url(#a)" fill="#0D2240"/>
	<path d="m120.8 74c0.4 0.1 0.6-0.2 0.6-0.5s-0.2-0.6-0.6-0.6v0.1-0.1c-0.3 0-0.6 0.2-0.6 0.6 0.1 0.3 0.3 0.5 0.6 0.5-0.2-0.1-0.4-0.3-0.4-0.5s0.2-0.4 0.5-0.4 0.4 0.2 0.4 0.5c0 0.1-0.2 0.3-0.5 0.4z" clip-path="url(#a)" fill="#1A2E5A"/>
	<path d="m117.7 76.3c0.3 0 0.6-0.2 0.6-0.5s-0.2-0.5-0.5-0.5-0.6 0.2-0.6 0.5 0.2 0.5 0.5 0.5" clip-path="url(#a)" fill="#1A2E5A"/>
	<path d="m117.7 76.3c0.4 0.1 0.6-0.2 0.6-0.5s-0.3-0.6-0.6-0.6-0.6 0.2-0.6 0.6c0 0.3 0.3 0.6 0.6 0.5-0.2-0.1-0.4-0.3-0.4-0.5s0.2-0.4 0.5-0.4v-0.1 0.1c0.2 0 0.4 0.2 0.4 0.5 0 0.2-0.2 0.4-0.5 0.4z" clip-path="url(#a)" fill="#1A2E5A"/>
	<path d="m124.1 76.5c0.3 0 0.6-0.2 0.6-0.5s-0.2-0.5-0.5-0.5-0.6 0.2-0.6 0.5c0 0.2 0.3 0.5 0.5 0.5" clip-path="url(#a)" fill="#1A2E5A"/>
	<path d="m124.1 76.5c0.4 0.1 0.6-0.2 0.6-0.5s-0.3-0.6-0.6-0.6-0.6 0.2-0.6 0.6c0.1 0.3 0.3 0.5 0.6 0.5-0.2-0.1-0.4-0.3-0.4-0.5s0.2-0.4 0.5-0.4 0.4 0.2 0.4 0.5c0 0.1-0.2 0.3-0.5 0.4z" clip-path="url(#a)" fill="#1A2E5A"/>
	<path d="m122.9 80.3c0.3 0 0.5-0.2 0.6-0.5 0-0.3-0.2-0.5-0.5-0.5s-0.5 0.2-0.6 0.5c-0.1 0.2 0.2 0.4 0.5 0.5" clip-path="url(#a)" fill="#0D2240"/>
	<path d="m122.9 80.3c0.4 0.1 0.6-0.2 0.6-0.5s-0.2-0.6-0.6-0.6c-0.3 0-0.6 0.2-0.6 0.6 0 0.3 0.2 0.5 0.6 0.5-0.2-0.1-0.4-0.3-0.4-0.5s0.2-0.4 0.5-0.4c0.2 0 0.4 0.2 0.4 0.5 0 0.1-0.3 0.3-0.5 0.4z" clip-path="url(#a)" fill="#1A2E5A"/>
	<path d="m119 80.1c0.3 0 0.5-0.2 0.6-0.5 0-0.3-0.2-0.5-0.5-0.5s-0.5 0.2-0.6 0.5c-0.1 0.2 0.2 0.4 0.5 0.5" clip-path="url(#a)" fill="#0D2240"/>
	<path d="m119 80.1c0.4 0.1 0.6-0.2 0.6-0.5s-0.3-0.6-0.6-0.6-0.6 0.2-0.6 0.6c0 0.3 0.2 0.5 0.6 0.5-0.2-0.1-0.4-0.3-0.4-0.5s0.2-0.4 0.5-0.4c0.2 0 0.4 0.2 0.4 0.5h0.1-0.1c-0.1 0.1-0.3 0.3-0.5 0.4z" clip-path="url(#a)" fill="#1A2E5A"/>
	<path d="m120.9 73.7c0.3 0 0.5-0.2 0.5-0.4 0-0.3-0.2-0.5-0.5-0.5s-0.5 0.2-0.5 0.4c0 0.3 0.2 0.5 0.5 0.5" clip-path="url(#a)" fill="#fff"/>
	<path d="m120.9 73.7c0.3 0.1 0.6-0.1 0.6-0.4s-0.2-0.5-0.5-0.5v0.1-0.1c-0.3 0-0.5 0.2-0.5 0.5-0.2 0.2 0.1 0.5 0.4 0.4-0.2-0.1-0.4-0.3-0.4-0.5s0.2-0.4 0.4-0.4 0.4 0.2 0.4 0.4h0.1-0.1c0 0.3-0.2 0.4-0.4 0.5z" clip-path="url(#a)" fill="#fff"/>
	<path d="m117.7 76c0.3 0 0.5-0.2 0.5-0.4 0-0.3-0.2-0.5-0.5-0.5s-0.5 0.2-0.5 0.4c0.1 0.3 0.3 0.5 0.5 0.5" clip-path="url(#a)" fill="#fff"/>
	<path d="m117.7 76c0.3 0.1 0.6-0.1 0.6-0.4h-0.1 0.1c0-0.3-0.2-0.5-0.5-0.5s-0.5 0.2-0.6 0.5c0 0.2 0.2 0.4 0.5 0.4-0.2-0.1-0.4-0.3-0.4-0.5s0.2-0.4 0.4-0.4 0.4 0.2 0.4 0.4c0.1 0.3-0.1 0.4-0.4 0.5z" clip-path="url(#a)" fill="#fff"/>
	<path d="m124.1 76.2c0.3 0 0.5-0.2 0.5-0.4 0-0.3-0.2-0.5-0.5-0.5s-0.5 0.2-0.5 0.4c0.1 0.2 0.3 0.4 0.5 0.5" clip-path="url(#a)" fill="#fff"/>
	<path d="m124.1 76.2c0.3 0.1 0.6-0.2 0.6-0.4 0-0.3-0.2-0.5-0.5-0.5-0.6 0-0.6 0.7-0.6 0.5 0 0.2 0.3 0.4 0.5 0.4-0.2-0.1-0.4-0.3-0.4-0.5s0.2-0.4 0.4-0.4 0.4 0.2 0.4 0.4c0.1 0.2-0.1 0.4-0.4 0.5z" clip-path="url(#a)" fill="#fff"/>
	<path d="m122.9 80c0.3 0 0.5-0.2 0.5-0.4 0-0.3-0.2-0.5-0.5-0.5s-0.5 0.2-0.5 0.4 0.2 0.5 0.5 0.5" clip-path="url(#a)" fill="#fff"/>
	<path d="m122.9 80c0.3 0.1 0.6-0.2 0.6-0.4 0-0.3-0.2-0.5-0.5-0.5v0.1-0.1c-0.3 0-0.5 0.2-0.6 0.5-0.1 0.2 0.2 0.4 0.5 0.4-0.2-0.1-0.4-0.3-0.4-0.5s0.2-0.4 0.4-0.4 0.4 0.2 0.4 0.4-0.2 0.4-0.4 0.5z" clip-path="url(#a)" fill="#fff"/>
	<path d="m119 79.8c0.3 0 0.5-0.2 0.5-0.4 0-0.3-0.2-0.5-0.5-0.5s-0.5 0.2-0.5 0.4c0 0.3 0.2 0.5 0.5 0.5" clip-path="url(#a)" fill="#fff"/>
	<path d="m119 79.8c0.3 0.1 0.6-0.2 0.6-0.4 0-0.3-0.2-0.5-0.5-0.5s-0.5 0.2-0.6 0.5c-0.1 0.2 0.2 0.5 0.5 0.4-0.2-0.1-0.4-0.3-0.4-0.5s0.2-0.4 0.4-0.4 0.4 0.2 0.4 0.4c0 0.3-0.2 0.4-0.4 0.5z" clip-path="url(#a)" fill="#fff"/>
	<path d="m121 77.3c0.4 0 0.8-0.3 0.8-0.7s-0.3-0.8-0.7-0.8-0.8 0.3-0.8 0.7 0.3 0.8 0.7 0.8" clip-path="url(#a)" fill="#fff"/>
	<path d="m121 77.3c0.5 0.1 0.9-0.3 0.9-0.7s-0.4-0.8-0.8-0.8-0.8 0.3-0.8 0.8c-0.1 0.4 0.3 0.7 0.7 0.7-0.4-0.1-0.7-0.4-0.7-0.7 0-0.4 0.3-0.6 0.7-0.6s0.7 0.3 0.7 0.7c0 0.2-0.3 0.5-0.7 0.6z" clip-path="url(#a)" fill="#fff"/>
	<path d="m110.9 71.6v-1c0-0.5-1.3-0.8-3-0.8-1.6 0-2.9 0.4-2.9 0.8v1" clip-path="url(#a)" fill="#fff"/>
	<path d="m111.2 71.6v-1c0-0.1-0.1-0.3-0.1-0.4-0.1-0.2-0.3-0.3-0.5-0.4-0.6-0.3-1.6-0.4-2.7-0.4-0.8 0-1.6 0.1-2.2 0.3-0.3 0.1-0.5 0.2-0.7 0.3-0.1 0.1-0.2 0.1-0.3 0.2s-0.1 0.2-0.1 0.4v1c0 0.2 0.2 0.3 0.4 0.3s0.3-0.1 0.3-0.3v-1h-0.1 0.1-0.1 0.1c0.1-0.1 0.5-0.2 0.9-0.3 0.5-0.1 1-0.2 1.7-0.2 0.8 0 1.5 0.1 2 0.2 0.2 0.1 0.4 0.1 0.5 0.2l0.1 0.1h0.1-0.1 0.1-0.1v1c0 0.2 0.2 0.3 0.3 0.3 0.2 0 0.4-0.2 0.4-0.3" clip-path="url(#a)" fill="#1A2E5A"/>
	<path d="m107.9 72.4c1.6 0 3-0.4 3-0.8 0-0.5-1.3-0.8-3-0.8-1.6 0-3 0.4-3 0.8 0.1 0.4 1.4 0.8 3 0.8" clip-path="url(#a)" fill="#fff"/>
	<path d="m107.9 72.4l-0.3 0.2c0.8 0 1.9 0 2.5-0.1 0.3-0.1 0.5-0.2 0.7-0.3 0.1-0.1 0.2-0.1 0.3-0.2s0.1-0.2 0.1-0.4c0-0.1-0.1-0.3-0.1-0.4-0.1-0.2-0.3-0.3-0.5-0.4-0.6-0.3-1.6-0.4-2.7-0.4-0.8 0-1.6 0.1-2.2 0.3-0.3 0.1-0.5 0.2-0.7 0.3-0.1 0.1-0.2 0.1-0.3 0.2s-0.1 0.2-0.1 0.4c0 0.1 0.1 0.3 0.1 0.4 0.1 0.2 0.3 0.3 0.5 0.4 0.6 0.3 1.6 0.4 2.7 0.4v-0.8c-0.8 0-1.5-0.1-2-0.2-0.2-0.1-0.4-0.2-0.5-0.2l-0.1-0.1h-0.1 0.1-0.1 0.1-0.1 0.1-0.1 0.1c0.1-0.1 0.5-0.2 0.9-0.3 0.5-0.1 1-0.1 1.7-0.1 0.8 0 1.5 0.1 2 0.2 0.2 0.1 0.4 0.1 0.5 0.2l0.1 0.1h0.1-0.1 0.1-0.1 0.1-0.1 0.1-0.1c-0.1 0.1-0.5 0.2-0.9 0.3-0.5 0.1-1 0.2-1.7 0.2v0.3z" clip-path="url(#a)" fill="#1A2E5A"/>
	<path d="m107.9 66s-1.1 1-0.9 3.7c0 0 0.2-3.2-1.9-3.5 0 0 0.7 1.7 0.7 3.9 0 0 0.3-2.5-2.8-2.9 0 0 2 1.5 2 3.3 0-0.5 2.9-0.7 2.9-0.7 2.7-0.1 2.9 0.7 2.9 0.7-0.1-1.8 2-3.3 2-3.3-3 0.4-2.8 2.9-2.8 2.9 0-2.2 0.7-3.9 0.7-3.9-2.1 0.4-1.9 3.5-1.9 3.5 0.1-2.7-0.9-3.7-0.9-3.7" clip-path="url(#a)" fill="#fff"/>
	<path d="m107.6 65.7c-0.1 0-1 1-1 3.4v0.6c0 0.2 0.2 0.3 0.3 0.3 0.2 0 0.3-0.1 0.3-0.3v-0.2c0-0.4 0-1.2-0.3-1.9-0.1-0.4-0.3-0.8-0.7-1.1-0.3-0.3-0.7-0.6-1.3-0.7-0.1 0-0.3 0-0.3 0.1-0.1 0.1-0.1 0.2-0.1 0.3v0.1c0.1 0.3 0.6 1.8 0.6 3.7 0 0.2 0.1 0.3 0.3 0.3s0.3-0.1 0.4-0.3v-0.2c0-0.3-0.1-1-0.5-1.6s-1.2-1.2-2.6-1.4c-0.2 0-0.3 0.1-0.4 0.2s0 0.3 0.1 0.4l0.1 0.1c0.2 0.1 0.6 0.5 1.1 1.1 0.4 0.5 0.8 1.2 0.8 1.9 0 0.1 0 0.2 0.1 0.2 0.1 0.1 0.2 0.1 0.2 0.1 0.1 0 0.2 0 0.2-0.1 0.1-0.1 0.1-0.2 0.1-0.2h-0.2l0.1 0.1v-0.1h-0.2l0.1 0.1s0.2-0.1 0.5-0.2c0.4-0.1 1-0.2 1.4-0.2s0.8-0.1 0.8-0.1v-0.3 0.3h0.3c1.2 0 1.8 0.2 2 0.3 0.1 0.1 0.2 0.1 0.2 0.1l0.2-0.1-0.2 0.1 0.2-0.1-0.2 0.1c0 0.2 0.2 0.3 0.4 0.3s0.3-0.2 0.3-0.4v-0.1c0-0.7 0.4-1.5 0.9-2 0.2-0.3 0.5-0.5 0.7-0.6 0.1-0.1 0.2-0.1 0.2-0.2l0.1-0.1c0.1-0.1 0.2-0.3 0.1-0.4s-0.2-0.2-0.4-0.2c-1.4 0.2-2.2 0.8-2.6 1.4s-0.5 1.3-0.5 1.6v0.2c0 0.2 0.2 0.3 0.4 0.3s0.3-0.2 0.3-0.3c0-1.1 0.2-2 0.3-2.7 0.1-0.3 0.2-0.6 0.2-0.8 0-0.1 0.1-0.2 0.1-0.2v-0.1c0-0.1 0-0.2-0.1-0.3s-0.2-0.1-0.3-0.1c-0.5 0.1-0.9 0.3-1.3 0.7-0.5 0.5-0.7 1.1-0.8 1.7s-0.1 1.1-0.1 1.4v0.2c0 0.2 0.2 0.3 0.3 0.3 0.2 0 0.3-0.1 0.3-0.3v-0.6c0-2.3-1-3.3-1-3.3 0.5-0.3 0.3-0.3 0.1-0.2-0.1 0.1-0.1 0.3 0 0.5 0.1 0.1 0.8 0.9 0.8 2.9v0.6h0.3 0.3v-0.2c0-0.3 0-1.1 0.3-1.7 0.1-0.3 0.3-0.6 0.5-0.9 0.2-0.2 0.5-0.4 0.9-0.5l-0.1-0.3-0.3-0.1s-0.7 1.8-0.7 4h0.4 0.3v-0.1c0-0.2 0-0.8 0.4-1.3 0.3-0.5 0.9-1 2.1-1.1v-0.3l-0.2-0.3s-0.5 0.4-1.1 1c-0.5 0.6-1.1 1.4-1.1 2.4v0.2h0.4l0.3-0.1c0-0.1-0.1-0.4-0.6-0.6-0.4-0.2-1.1-0.4-2.3-0.4h-0.3s-0.7 0-1.5 0.1c-0.4 0.1-0.8 0.1-1.1 0.2-0.2 0.1-0.3 0.1-0.4 0.2l-0.2 0.2c-0.1 0.1-0.1 0.2-0.1 0.3s0 0.2 0.1 0.2c0.1 0.1 0.2 0.1 0.2 0.1 0.1 0 0.2 0 0.2-0.1 0.1-0.1 0.1-0.2 0.1-0.2 0-1-0.6-1.9-1.1-2.5s-1-1-1.1-1l-0.2 0.3v0.3c1.2 0.2 1.8 0.6 2.1 1.1s0.4 1 0.4 1.3v0.1h0.3 0.4c0-2.2-0.7-4-0.7-4l-0.3 0.1-0.1 0.3c0.4 0.1 0.6 0.2 0.9 0.5s0.5 0.9 0.6 1.4 0.1 1 0.1 1.2v0.2h0.3 0.4v-0.6c0-1.1 0.2-1.8 0.4-2.3 0.1-0.2 0.2-0.4 0.3-0.5l0.1-0.1c0.1-0.1 0.1-0.3 0-0.5 0-0.1-0.2-0.1-0.4 0" clip-path="url(#a)" fill="#1A2E5A"/>
	<path d="m107.9 72.4c1.6 0 3-0.4 3-0.8 0-0.5-1.3-0.8-3-0.8-1.6 0-3 0.4-3 0.8 0.1 0.4 1.4 0.8 3 0.8" clip-path="url(#a)" fill="#fff"/>
	<path d="m107.9 72.4v0.1c0.8 0 1.6-0.1 2.1-0.2 0.3-0.1 0.5-0.2 0.7-0.3s0.3-0.2 0.3-0.4-0.1-0.3-0.3-0.4c-0.5-0.3-1.6-0.5-2.8-0.5-0.8 0-1.6 0.1-2.1 0.2-0.3 0.1-0.5 0.2-0.7 0.3s-0.3 0.2-0.3 0.4 0.1 0.3 0.3 0.4c0.5 0.3 1.6 0.5 2.8 0.5v-0.2c-0.8 0-1.5-0.1-2-0.2-0.3-0.1-0.5-0.2-0.6-0.2l-0.2-0.2s0-0.1 0.2-0.2c0.4-0.3 1.4-0.5 2.6-0.5 0.8 0 1.5 0.1 2 0.2 0.3 0.1 0.5 0.2 0.6 0.2l0.2 0.2s0 0.1-0.2 0.2c-0.4 0.3-1.4 0.5-2.6 0.5v0.1z" clip-path="url(#a)" fill="#1A2E5A"/>
	<path d="m107.9 66s-1.1 1-0.9 3.7c0 0 0.2-3.2-1.9-3.5 0 0 0.7 1.7 0.7 3.9 0 0 0.3-2.5-2.8-2.9 0 0 1.9 1.6 1.9 3.4 0 0 0.5-0.8 3.1-0.8 2.5 0.1 3.2 0.8 3.2 0.8l-0.2-0.1c-0.1-1.8 1.8-3.4 1.8-3.4-3 0.4-2.8 2.8-2.8 2.8 0-2.2 0.7-3.8 0.7-3.8-2.1 0.4-1.9 3.5-1.9 3.5 0.1-2.6-0.9-3.6-0.9-3.6" clip-path="url(#a)" fill="#fff"/>
	<path d="m111.3 70.7c0-0.2-0.1-0.3-0.3-0.5-0.6-0.4-1.7-0.6-3-0.6-0.9 0-1.7 0.1-2.3 0.3-0.3 0.1-0.5 0.2-0.7 0.3s-0.3 0.3-0.3 0.5l0.2 0.1 0.1-0.1s0-0.1 0.2-0.2c0.4-0.3 1.6-0.5 2.9-0.5 0.9 0 1.7 0.1 2.2 0.3 0.3 0.1 0.5 0.2 0.6 0.3l0.2 0.2 0.2 0.1v-0.2z" clip-path="url(#a)" fill="#1A2E5A"/>
	<path d="m27.1 120.6c-0.8-0.7-1.7-0.9-2.6-0.9-0.7 0-1.4 0.2-1.8 0.6-0.8 0.8-1.1 2.1-1.1 3.9 0 1.7 0.3 2.8 0.9 3.4 0.5 0.4 1.2 0.7 2 0.7 0.6 0 1-0.1 1.4-0.3v-2.8h-1.9l-0.3-2h4.8v5.8c-1.3 0.7-2.7 1.1-4.2 1.1-1.9 0-3.2-0.6-4.3-1.8-0.9-1.1-1.3-2.4-1.3-4.2 0-2.6 0.9-4.4 2.6-5.5 0.9-0.6 1.9-0.9 3-0.9 1.5 0 2.9 0.5 4 1.4l-1.2 1.5z" clip-path="url(#a)" fill="#fff"/>
	<path d="m33 119.5v6.9c0 1.5 0 1.7 0.2 2 0.1 0.2 0.3 0.2 0.5 0.2h0.3l0.4 1.4c-0.4 0.2-0.9 0.2-1.4 0.2-1 0-1.9-0.5-2.1-1.2-0.2-0.4-0.2-0.7-0.2-2v-6.7c0-1.2 0-1.9-0.1-2.7l2.5-0.5c-0.2 0.5-0.1 1.1-0.1 2.4" clip-path="url(#a)" fill="#fff"/>
	<path d="m36.8 121.4c0.9-0.4 1.7-0.5 2.5-0.5 1.5 0 2.6 0.6 3 1.5 0.1 0.4 0.2 0.6 0.2 1.6l-0.1 3v0.2c0 1 0.2 1.3 0.9 1.8l-1.3 1.4c-0.6-0.2-1.1-0.6-1.3-1.1-0.2 0.2-0.4 0.3-0.6 0.5-0.4 0.3-1.1 0.5-1.8 0.5-2 0-3.2-1-3.2-2.8 0-2.1 1.5-3.1 4.4-3.1h0.5v-0.4c0-1-0.2-1.3-1.1-1.3-0.8 0-1.7 0.4-2.7 1l-1-1.7c0.6-0.1 1-0.3 1.6-0.6m3.2 4.7c-1.7 0-2.2 0.3-2.2 1.4 0 0.7 0.4 1.2 1.1 1.2 0.5 0 0.9-0.2 1.3-0.6v-1.9h-0.2z" clip-path="url(#a)" fill="#fff"/>
	<path d="m50.1 123.3c-0.9-0.5-1.6-0.6-2.3-0.6s-1.2 0.3-1.2 0.9c0 0.5 0.3 0.7 1.1 0.9l1.1 0.3c1.1 0.3 1.5 0.6 1.8 1s0.5 0.9 0.5 1.5c0 1.9-1.6 3.1-3.9 3.1-1.1 0-2.4-0.3-3.7-1l0.9-1.7c0.7 0.4 2 1 3.1 1 0.7 0 1.2-0.4 1.2-1s-0.4-0.9-1.4-1.1l-1.1-0.2c-0.6-0.1-1.4-0.5-1.7-0.9s-0.5-1-0.5-1.6c0-1.7 1.4-2.9 3.6-2.9 1.5 0 2.4 0.4 3.3 0.8l-0.8 1.5z" clip-path="url(#a)" fill="#fff"/>
	<path d="m61.9 122.1c-0.5 0.5-1 0.7-1.7 0.7-0.2 0-0.5 0-0.6-0.1 0.4 0.4 0.5 0.9 0.5 1.5 0 1.5-1.4 2.6-3.4 2.6h-0.4c-0.6 0.3-1 0.5-1 0.7 0 0.1 0.1 0.2 0.4 0.2h1.3c1.4 0 2.1 0.2 2.8 0.8 0.5 0.5 0.8 1.1 0.8 1.9s-0.2 1.3-0.7 1.9c-0.8 0.8-2.2 1.2-3.6 1.2-1.3 0-2.7-0.2-3.5-1-0.5-0.5-0.8-1-0.8-1.6 0-0.5 0.1-0.7 0.2-0.9h2.2c-0.1 0.2-0.1 0.3-0.1 0.6 0 0.7 0.6 1.1 1.7 1.1 0.6 0 1.1-0.1 1.5-0.3s0.6-0.5 0.6-0.9c0-0.8-0.7-1-1.7-1.1h-1c-1.1 0-1.8-0.1-2.2-0.3s-0.7-0.6-0.7-1.2 0.2-1.1 1.7-1.5c-1.3-0.3-2-1.1-2-2.5 0-1.8 1.5-3 3.9-3 0.5 0 1 0.1 1.7 0.2 0.5 0.1 0.8 0.2 1.1 0.2 0.7 0 1.4-0.3 1.9-0.8l1.1 1.6zm-7.1 1.9c0 0.9 0.6 1.3 1.4 1.3 1 0 1.5-0.5 1.5-1.3s-0.5-1.3-1.5-1.3c-0.9 0-1.4 0.4-1.4 1.3" clip-path="url(#a)" fill="#fff"/>
	<path d="m69 122.3c0.7 0.8 1.1 1.8 1.1 3.3s-0.4 2.6-1.2 3.5c-0.7 0.8-1.6 1.2-3 1.2-2.5 0-4.1-1.8-4.1-4.6s1.7-4.7 4.1-4.7c1.3-0.1 2.3 0.4 3.1 1.3m-4.4 1.3c-0.2 0.5-0.2 1.1-0.2 2 0 1 0.1 1.8 0.3 2.2 0.2 0.5 0.8 0.7 1.2 0.7 1 0 1.5-0.9 1.5-3 0-1.2-0.2-2-0.5-2.4-0.2-0.3-0.6-0.5-1-0.5-0.6 0.1-1.1 0.4-1.3 1" clip-path="url(#a)" fill="#fff"/>
	<path d="m72.6 121l0.8 3.4c0.2 1 0.5 2.8 0.5 2.8s0.2-1.6 0.7-3.1l0.9-3h2.3l0.7 2.9c0.4 1.7 0.7 3.1 0.7 3.1 0.1-0.4 0.2-1.8 0.5-2.9l0.7-3.2h2.5l-2.6 8.9h-2.2l-0.8-3.1c-0.2-0.7-0.4-1.6-0.5-2.2-0.1-0.4-0.1-0.5-0.1-0.9-0.1 0.4-0.1 0.5-0.2 1.1-0.2 0.8-0.6 2.3-0.8 3.1l-0.7 2.1h-2.3l-2.5-8.8 2.4-0.2z" clip-path="url(#a)" fill="#fff"/>
</svg>
